<svg enable-background="new 0 0 672 400" viewBox="0 0 672 400" xmlns="http://www.w3.org/2000/svg" xmlns:xlink="http://www.w3.org/1999/xlink"><linearGradient id="a"><stop offset="0" stop-color="#0dbc5c"/><stop offset="1" stop-color="#9ae6b4" stop-opacity="0"/></linearGradient><linearGradient id="b" gradientUnits="userSpaceOnUse" x1="481.3099" x2="506.5891" xlink:href="#a" y1="227.9316" y2="382.736"/><linearGradient id="c" gradientUnits="userSpaceOnUse" x1="145.2187" x2="308.4206" xlink:href="#a" y1="200.3959" y2="363.5978"/><linearGradient id="d" gradientUnits="userSpaceOnUse" x1="396.1405" x2="517.1727" xlink:href="#a" y1="299.943" y2="420.9752"/><path d="m0 0h672v400h-672z" fill="#9ae6b4"/><path d="m671.7 399.8-.1-224.8-384.1 84.6 139.6 138.9h178.9z" fill="url(#b)"/><path d="m414.4 321.8-156.3-156.3-205.2 90.3 143.6 143.6h62.3z" fill="url(#c)"/><path d="m467.4 280.5-111.4 32.3 49 86.6h181.3z" fill="url(#d)"/><path d="m468 279.4-214.4 65.5 16.7 54.5h234.4z" fill="#38a169"/><path d="m550.3 354.7c-22.2-50.4-81-73.3-131.4-51.1-38.8 17.1-61.3 55.9-59.5 95.8h199.2c.8-14.9-1.9-30.1-8.3-44.7z" fill="#22543d"/><path d="m478.2 386.5c-4.6-10.6-17-15.4-27.5-10.7-9.3 4.1-14.1 14.1-12 23.7h40.7c1-4.3.7-8.8-1.2-13z" fill="#2f855a"/><path d="m441 387.8c1.9-4.8 5.5-8.6 10.3-10.7 2.5-1.1 5.1-1.7 7.8-1.7 2.4 0 4.8.4 7 1.3 4.8 1.9 8.6 5.5 10.7 10.3 1.7 3.9 2.1 8.3 1.1 12.4h3.1c1-4.5.5-9.2-1.4-13.6-2.4-5.5-6.8-9.7-12.4-11.9s-11.7-2-17.1.4-9.7 6.8-11.9 12.4c-1.6 4.1-1.9 8.5-1 12.7h3.1c-1-3.8-.8-7.8.7-11.6z" fill="#0dbc5c"/><g fill="#276749"><path d="m390.9 368.3c7.1-18.2 20.8-32.6 38.7-40.5 9.4-4.2 19.4-6.2 29.5-6.2 9 0 17.9 1.7 26.6 5 18.2 7.1 32.6 20.8 40.5 38.7 4.8 10.9 6.8 22.5 6.1 34h3c.7-11.9-1.4-24-6.3-35.2-8.2-18.6-23.2-32.9-42.1-40.3-19-7.4-39.7-6.9-58.3 1.3s-33 23.2-40.3 42.1c-4.1 10.4-5.7 21.3-5.1 32.2h3c-.9-10.4.7-21 4.7-31.1z"/><path d="m425.6 318.8c10.9-4.8 22.2-7 33.3-7 32 0 62.5 18.5 76.2 49.6 5.4 12.4 7.6 25.4 6.9 38h3.1c.7-13.3-1.7-26.7-7.2-39.2-9.3-21-26.2-37.2-47.6-45.6-21.4-8.3-44.8-7.8-65.9 1.4-33.6 14.8-53.1 48.7-51.3 83.3h3c-1.8-33.4 17-66.2 49.5-80.5z"/><path d="m402.6 372.9c5.9-15.1 17.3-27 32.1-33.5 7.9-3.5 16.2-5.1 24.3-5.1 23.3 0 45.6 13.5 55.6 36.2 4.1 9.4 5.7 19.4 4.9 29h4c.7-10.2-.9-20.6-5.3-30.6-14.3-32.6-52.6-47.5-85.2-33.1-15.8 7-27.9 19.6-34.2 35.7-3.5 9.1-4.9 18.6-4.3 28h4c-.6-9 .7-18 4.1-26.6z"/><path d="m417.9 378.8c4.3-11 12.6-19.7 23.4-24.4 5.8-2.5 11.8-3.7 17.7-3.7 17 0 33.2 9.9 40.5 26.4 3.1 7.1 4.3 14.8 3.5 22.4h3c.8-8-.5-16-3.8-23.6-10.5-23.8-38.4-34.7-62.2-24.2-11.5 5.1-20.4 14.3-25 26.1-2.7 7-3.7 14.4-3 21.7h3c-.6-7 .3-14 2.9-20.7z"/><path d="m447.2 367.9c3.9-1.7 7.9-2.5 11.8-2.5 11.3 0 22.2 6.6 27 17.6 2.3 5.2 3 10.9 2.1 16.4h5c.8-6.1 0-12.4-2.6-18.4-7.7-17.4-28-25.3-45.4-17.7-14.4 6.3-22.3 21.3-20.3 36.1h5c-1.9-12.9 4.9-26 17.4-31.5z"/></g><path d="m461 399.3c2.5-1.1 3.6-4 2.5-6.4s-4-3.6-6.4-2.5c-2.5 1.1-3.6 4-2.5 6.4.5 1.2 1.5 2.1 2.7 2.6h3.4c.2 0 .2 0 .3-.1z" fill="#9ae6b4"/><path d="m460.8 399.4h-3.4c1 .4 2.2.5 3.4 0z" fill="#9ae6b4"/><path d="m410.8 376.1c5-12.9 14.8-23.1 27.4-28.7 6.7-2.9 13.8-4.4 20.9-4.4 6.3 0 12.7 1.2 18.8 3.6 12.9 5 23.1 14.8 28.7 27.4 3.6 8.3 4.9 17 4.2 25.4h3c.8-8.8-.6-18-4.4-26.6-5.9-13.4-16.7-23.7-30.3-29-13.7-5.3-28.6-5-42 .9s-23.7 16.7-29 30.3c-3.1 7.9-4.2 16.2-3.6 24.4h3c-.8-7.8.3-15.8 3.3-23.3z" fill="#276749"/><path d="m285.5 254.6c0 7 5.7 12.7 12.7 12.7h367.8c2 0 3.9-.5 5.6-1.3v-266h-386.1z" fill="#276749"/><path d="m294.4 239c0 6.7 5.5 12.2 12.2 12.2h360.3c1.7 0 3.3-.3 4.7-.9v-250.3h-377.2z" fill="#2f855a"/><path d="m671.6 236.4v-85.5l-150.8-150.9h-85.6z" fill="#38a169" opacity=".6"/><path d="m561.7 251.2h85.5l-251.2-251.2h-85.5z" fill="#38a169" opacity=".6"/><path d="m631.3 72.3h-8.3c-6.6 0-12-5.4-12-12v-28.7c0-6.6 5.4-12 12-12h8.3c6.6 0 12 5.4 12 12v28.8c0 6.5-5.4 11.9-12 11.9z" fill="#276749"/><path d="m460.2 277.4-214.4 65.5 17.3 56.5h234.4z" fill="#2f855a"/><path d="m150.5 199.3c-50.4 22.2-109.2-.7-131.4-51.1-22.2-50.4.7-109.2 51.1-131.4s109.2.7 131.4 51.1-.7 109.3-51.1 131.4z" fill="#2f855a"/><path d="m625.4 69.4h-8.3c-6.6 0-12-5.4-12-12v-28.8c0-6.6 5.4-12 12-12h8.3c6.6 0 12 5.4 12 12v28.8c0 6.6-5.4 12-12 12z" fill="#38a169"/><circle cx="627.4" cy="142.7" fill="#22543d" r="16.5"/><circle cx="621" cy="137.7" fill="#276749" r="16.5"/><path d="m621 154.8c-9.4 0-17-7.6-17-17s7.6-17 17-17 17 7.6 17 17-7.6 17-17 17zm0-33.1c-8.8 0-16 7.2-16 16s7.2 16 16 16 16-7.2 16-16-7.1-16-16-16z" fill="#0dbc5c"/><circle cx="627.4" cy="200.2" fill="#22543d" r="16.5"/><circle cx="621" cy="195.2" fill="#276749" r="16.5"/><path d="m621 212.2c-9.4 0-17-7.6-17-17s7.6-17 17-17 17 7.6 17 17-7.6 17-17 17zm0-33c-8.8 0-16 7.2-16 16s7.2 16 16 16 16-7.2 16-16-7.1-16-16-16z" fill="#0dbc5c"/><path d="m481.2 215.4c-50.4 22.2-109.2-.7-131.4-51.1s.7-109.2 51.1-131.4 109.2.7 131.4 51.1-.7 109.2-51.1 131.4z" fill="#183526"/><path d="m475.8 210.5c-50.4 22.2-109.2-.7-131.4-51.1s.7-109.2 51.1-131.4 109.2.7 131.4 51.1c22.1 50.4-.7 109.2-51.1 131.4z" fill="#22543d"/><path d="m444 138.4c-10.6 4.6-22.9-.1-27.5-10.7s.1-22.9 10.7-27.5 22.9.1 27.5 10.7c4.7 10.5-.1 22.8-10.7 27.5z" fill="#2f855a"/><path d="m435.6 141.6c-2.7 0-5.5-.5-8.1-1.5-5.6-2.2-10-6.4-12.4-11.9s-2.5-11.6-.4-17.1c2.2-5.6 6.4-10 11.9-12.4s11.6-2.5 17.1-.4c5.6 2.2 10 6.4 12.4 11.9 5 11.3-.2 24.5-11.5 29.5-2.9 1.3-5.9 1.9-9 1.9zm0-41.8c-2.7 0-5.3.6-7.8 1.7-4.7 2.1-8.4 5.9-10.3 10.7s-1.8 10.1.3 14.8 5.9 8.4 10.7 10.3 10.1 1.8 14.8-.3c9.8-4.3 14.2-15.8 9.9-25.6-2.1-4.7-5.9-8.4-10.7-10.3-2.1-.8-4.5-1.3-6.9-1.3z" fill="#0dbc5c"/><g fill="#276749"><path d="m435.7 195.4c-29.3 0-57.3-17-69.8-45.5-16.9-38.5.6-83.5 39.1-100.4 18.6-8.2 39.3-8.6 58.3-1.3 19 7.4 33.9 21.7 42.1 40.3s8.6 39.3 1.3 58.3c-7.4 19-21.7 33.9-40.3 42.1-10.1 4.5-20.4 6.5-30.7 6.5zm-29.6-143.1c-36.9 16.3-53.8 59.5-37.5 96.5 7.9 17.9 22.2 31.7 40.5 38.7 18.2 7.1 38.1 6.7 56-1.2s31.7-22.2 38.7-40.5c7.1-18.2 6.7-38.1-1.2-56s-22.2-31.7-40.5-38.7c-18.2-7.2-38.1-6.7-56 1.2z"/><path d="m435.7 205.3c-33.1 0-64.7-19.2-78.9-51.4-9.3-21-9.8-44.4-1.4-65.9 8.3-21.4 24.5-38.3 45.6-47.6 21-9.3 44.4-9.8 65.9-1.4 21.4 8.3 38.3 24.5 47.6 45.6 9.3 21 9.8 44.4 1.4 65.9-8.3 21.4-24.5 38.3-45.6 47.6-11.3 4.9-23 7.2-34.6 7.2zm-.2-169.1c-11.2 0-22.5 2.3-33.3 7-41.9 18.4-61 67.6-42.6 109.5s67.6 61 109.5 42.6l.6 1.4-.6-1.4c41.9-18.4 61-67.6 42.6-109.5-13.7-31.1-44.3-49.6-76.2-49.6z"/><path d="m435.7 183.9c-24.9 0-48.6-14.4-59.2-38.6-7-15.8-7.3-33.4-1.1-49.5 6.3-16.1 18.4-28.8 34.2-35.7 32.6-14.4 70.8.5 85.2 33.1 7 15.8 7.3 33.4 1.1 49.5-6.3 16.1-18.4 28.8-34.2 35.7-8.5 3.7-17.3 5.5-26 5.5zm-.2-125.3c-8.1 0-16.4 1.6-24.3 5.1-14.8 6.5-26.2 18.4-32.1 33.5s-5.5 31.6 1 46.4c13.5 30.6 49.3 44.5 79.9 31.1l.8 1.8-.8-1.8c14.8-6.5 26.2-18.4 32.1-33.5s5.5-31.6-1-46.4c-10-22.6-32.3-36.2-55.6-36.2z"/><path d="m435.6 166.5c-5.8 0-11.6-1.1-17.1-3.2-11.8-4.6-21-13.4-26.1-25s-5.4-24.4-.8-36.1 13.4-21 25-26.1c11.5-5.1 24.4-5.4 36.1-.8 11.8 4.6 21 13.4 26.1 25 5.1 11.5 5.4 24.4.8 36.1-4.6 11.8-13.4 21-25 26.1-6.1 2.6-12.5 4-19 4zm-.1-91.5c-5.9 0-12 1.2-17.7 3.7-10.8 4.8-19.1 13.4-23.4 24.4s-4 23 .7 33.8c4.8 10.8 13.4 19.1 24.4 23.4s23 4 33.8-.7c10.8-4.8 19.1-13.4 23.4-24.4s4-23-.7-33.8c-7.2-16.5-23.4-26.4-40.5-26.4z"/><path d="m435.6 153.7c-4.2 0-8.5-.8-12.5-2.4-8.6-3.3-15.4-9.8-19.1-18.3-3.7-8.4-3.9-17.8-.6-26.4s9.8-15.4 18.3-19.1c17.4-7.7 37.8.3 45.4 17.7 3.7 8.4 3.9 17.8.6 26.4s-9.8 15.4-18.3 19.1c-4.4 2.1-9.1 3-13.8 3zm0-63.9c-4 0-8 .8-11.8 2.5-14.9 6.5-21.7 24-15.1 38.9 6.5 14.9 24 21.7 38.9 15.1 7.2-3.2 12.7-9 15.6-16.3s2.7-15.4-.5-22.6c-5-11.1-15.8-17.6-27.1-17.6z"/></g><circle cx="435.6" cy="119.2" fill="#9ae6b4" r="4.9"/><path d="m435.6 174.1c-6.7 0-13.4-1.3-19.9-3.8-13.7-5.3-24.4-15.6-30.3-29-12.2-27.7.4-60.1 28.1-72.3s60.1.4 72.3 28.1-.4 60.1-28.1 72.3c-7.1 3.2-14.6 4.7-22.1 4.7zm0-106.7c-7.1 0-14.2 1.5-20.9 4.4-12.7 5.6-22.4 15.8-27.4 28.7s-4.7 27 .9 39.7 15.8 22.4 28.7 27.4 27 4.7 39.7-.9 22.4-15.8 27.4-28.7 4.7-27-.9-39.7-15.8-22.4-28.7-27.4c-6.1-2.3-12.5-3.5-18.8-3.5z" fill="#276749"/><path d="m516.7 176.3h-23.7c-1.9 0-3.5-1.6-3.5-3.5s1.6-3.5 3.5-3.5h21.3l108.2-86.2v-70.6c0-1.9 1.6-3.5 3.5-3.5s3.5 1.6 3.5 3.5v74z" fill="#276749"/><path d="m511.6 171.6h-23.7c-1.9 0-3.5-1.6-3.5-3.5s1.6-3.5 3.5-3.5h21.3l108.2-86.2v-70.6c0-1.9 1.6-3.5 3.5-3.5s3.5 1.6 3.5 3.5v74z" fill="#68d391"/><circle cx="621.8" cy="44" fill="#2f855a" r="11.7"/><path d="m304.1 361.2c-1.9-6.3-8.6-10-14.9-8.1l-2.3.7c-6.3 1.9-10 8.6-8.1 14.9l9.1 30.8h27.5z" fill="#0dbc5c"/><path d="m393.4 380.5-10.3-35c-3.1-10.5-14.2-16.5-24.7-13.5l-22.9 6.8c-10.5 3.1-16.5 14.2-13.5 24.7l10.3 35c.1.3.2.6.3.9h56.4c4.5-4.9 6.4-12 4.4-18.9z" fill="#0dbc5c"/><path d="m458.3 383.2-2.3.7c-6.3 1.9-13-1.8-14.9-8.1l-14.8-50.1c-1.9-6.3 1.8-13 8.1-14.9l2.3-.7c6.3-1.9 13 1.8 14.9 8.1l14.8 50.1c1.9 6.3-1.8 13-8.1 14.9z" fill="#0dbc5c"/><path d="m423.7 393.4c-3.1.9-6.4-.9-7.3-4l-18.2-61.8c-.9-3.1.9-6.4 4-7.3s6.4.9 7.3 4l18.2 61.8c.9 3.1-.8 6.4-4 7.3z" fill="#0dbc5c"/><path d="m209 332.9c-50.4 22.2-109.2-.7-131.4-51.1s.7-109.2 51.1-131.4 109.2.7 131.4 51.1-.7 109.3-51.1 131.4z" fill="#22543d"/><path d="m177.2 260.8c-10.6 4.6-22.9-.1-27.5-10.7s.1-22.9 10.7-27.5 22.9.1 27.5 10.7c4.7 10.5-.1 22.8-10.7 27.5z" fill="#2f855a"/><path d="m168.9 264.1c-8.6 0-16.8-5-20.5-13.4-2.4-5.5-2.5-11.6-.4-17.1 2.2-5.6 6.4-10 11.9-12.4 11.3-5 24.5.2 29.5 11.5 2.4 5.5 2.5 11.6.4 17.1-2.2 5.6-6.4 10-11.9 12.4-3 1.3-6 1.9-9 1.9zm-.1-41.8c-2.6 0-5.2.5-7.8 1.6-4.7 2.1-8.4 5.9-10.3 10.7s-1.8 10.1.3 14.8c4.3 9.8 15.8 14.2 25.6 9.9 4.7-2.1 8.4-5.9 10.3-10.7s1.8-10.1-.3-14.8c-3.2-7.2-10.3-11.5-17.8-11.5z" fill="#0dbc5c"/><path d="m168.9 317.9c-29.3 0-57.3-17-69.8-45.5-16.9-38.5.6-83.5 39.1-100.4s83.5.6 100.4 39.1-.6 83.5-39.1 100.4c-9.9 4.3-20.3 6.4-30.6 6.4zm-30.1-144.6.6 1.4c-36.9 16.3-53.8 59.5-37.5 96.5 12 27.4 38.9 43.7 67.1 43.7 9.8 0 19.8-2 29.4-6.2 36.9-16.3 53.8-59.5 37.5-96.5-16.3-36.9-59.5-53.8-96.5-37.5z" fill="#276749"/><path d="m168.9 327.8c-10.5 0-21.1-2-31.2-5.9-21.4-8.3-38.3-24.5-47.6-45.6-9.3-21-9.8-44.4-1.4-65.9 8.3-21.4 24.5-38.3 45.6-47.6 43.4-19.1 94.3.7 113.4 44.1 9.3 21 9.8 44.4 1.4 65.9-8.3 21.4-24.5 38.3-45.6 47.6-11.1 4.9-22.9 7.4-34.6 7.4zm-.2-169.2c-11.2 0-22.5 2.3-33.3 7-20.3 8.9-35.9 25.2-44 45.9-8 20.7-7.6 43.3 1.4 63.6 18.4 41.9 67.6 61 109.5 42.6 20.3-8.9 35.9-25.2 44-45.9 8-20.7 7.6-43.3-1.4-63.6-13.7-31.1-44.2-49.6-76.2-49.6z" fill="#276749"/><path d="m168.8 306.3c-7.9 0-15.8-1.5-23.4-4.4-16.1-6.3-28.8-18.4-35.7-34.2s-7.3-33.4-1.1-49.5c6.3-16.1 18.4-28.8 34.2-35.7 15.8-7 33.4-7.3 49.5-1.1 16.1 6.3 28.8 18.4 35.7 34.2 7 15.8 7.3 33.4 1.1 49.5-6.3 16.1-18.4 28.8-34.2 35.7-8.4 3.7-17.2 5.5-26.1 5.5zm0-125.3c-8.3 0-16.6 1.7-24.4 5.2-14.8 6.5-26.2 18.4-32.1 33.5s-5.5 31.6 1 46.4 18.4 26.2 33.5 32.1 31.6 5.5 46.4-1 26.2-18.4 32.1-33.5 5.5-31.6-1-46.4-18.4-26.2-33.5-32.1c-7.1-2.8-14.6-4.2-22-4.2z" fill="#276749"/><path d="m168.9 288.9c-18.2 0-35.5-10.5-43.3-28.2-10.5-23.8.4-51.7 24.2-62.2 11.5-5.1 24.4-5.4 36.1-.8 11.8 4.6 21 13.4 26.1 25 10.5 23.8-.4 51.7-24.2 62.2-6.1 2.7-12.6 4-18.9 4zm-.1-91.5c-6 0-12.1 1.3-17.8 3.8-22.3 9.8-32.5 36-22.7 58.3s36 32.5 58.3 22.7l.6 1.4-.6-1.4c22.3-9.8 32.5-36 22.7-58.3-4.8-10.8-13.4-19.1-24.4-23.4-5.2-2-10.7-3.1-16.1-3.1z" fill="#276749"/><path d="m168.9 276.2c-13.3 0-25.9-7.7-31.6-20.6-7.7-17.4.3-37.8 17.7-45.4 17.4-7.7 37.8.3 45.4 17.7 3.7 8.4 3.9 17.8.6 26.4s-9.8 15.4-18.3 19.1c-4.5 1.8-9.2 2.8-13.8 2.8zm-.1-64c-4 0-8 .8-11.8 2.5-14.9 6.5-21.7 24-15.1 38.9 6.5 14.9 24 21.7 38.9 15.1 7.2-3.2 12.7-9 15.6-16.3s2.7-15.4-.5-22.6c-4.9-11-15.8-17.6-27.1-17.6z" fill="#276749"/><circle cx="168.8" cy="241.7" fill="#9ae6b4" r="4.9"/><path d="m168.9 296.5c-21.1 0-41.2-12.2-50.3-32.8-5.9-13.4-6.2-28.3-.9-42s15.6-24.4 29-30.3 28.3-6.2 42-.9 24.4 15.6 30.3 29c12.2 27.7-.4 60.1-28.1 72.3-7.1 3.2-14.6 4.7-22 4.7zm-.1-106.7c-7.1 0-14.2 1.5-20.9 4.4-26.2 11.5-38.1 42.2-26.6 68.3 11.5 26.2 42.2 38.1 68.3 26.6 26.2-11.5 38.1-42.2 26.6-68.3-5.6-12.7-15.8-22.4-28.7-27.4-6-2.4-12.3-3.6-18.7-3.6z" fill="#276749"/><path d="m258.1 165.5-72.8-165.5h-107.6l-77.8 34.2v100h-.4l53.5 121.6zm-239-17.3c-22.2-50.4.7-109.2 51.1-131.4s109.2.7 131.4 51.1-.7 109.2-51.1 131.4-109.2-.7-131.4-51.1z" fill="#38a169"/><path d="m6.1 59.6 144.6 144.7 21.5-10.8-152.5-152.4z" fill="#38a169" opacity=".35"/><path d="m38.8 36.7 144.6 144.6 21.6-10.7-152.5-152.5z" fill="#38a169" opacity=".35"/><path d="m291.1 0v239.4c0 7.8 6.4 14.2 14.2 14.2h360.3c2.2 0 4.2-.5 6-1.4v-4.6c-1.7 1.2-3.8 2-6 2h-360.3c-5.6 0-10.2-4.6-10.2-10.2v-239.4z" fill="#0dbc5c"/></svg>