<svg id="Layer_1" data-name="Layer 1" xmlns="http://www.w3.org/2000/svg" viewBox="0 0 1000 800"><defs><style>.cls-1{fill:#bcd400;}</style></defs><g id="Adient"><path d="M371.79,350.61H335.32c-6.91,0-13.23,1.33-13.23,11.33v104c0,10,6.47,11.32,13.23,11.32h36.47c35.3,0,62.94-29,62.94-63.38s-27.64-63.24-62.94-63.24m-.88,102.5H349V375h21.91c21.47,0,37.35,18.53,37.35,39,0,20-15.88,39.11-37.35,39.11m-104-102.5H263.7c-6.47.3-10.73,1.47-19.7,9.56L145.17,459c-5.14,5.14-4.7,8.82-3.82,11.47.15.44,2.06,6.17,11.62,6.91,5,.29,9.7-1.18,15.15-6.62l16.47-16.32h68.53v11.61c0,10,6.47,11.33,13.23,11.33h.44c6.91,0,13.24-1.33,13.24-11.33v-104c.29-10.14-6.18-11.47-13.09-11.47m-60.59,81.91,46.77-46.76v46.76Zm287.8,33.39c0,10-6.47,11.32-13.24,11.32h-.44c-6.91,0-13.24-1.32-13.24-11.32v-104c0-10,6.47-11.33,13.24-11.33h.44c6.91,0,13.24,1.33,13.24,11.33Zm67.2-13.24h65.88c9,0,11,5.3,11.33,11.33v1.76c-.3,6-2.35,11.32-11.33,11.32H547.68c-6.92,0-13.24-1.32-13.24-11.32v-104c0-10,6.47-11.32,13.24-11.32h79.55c9,0,11,5.29,11.33,11.32v1.76c-.3,6-2.35,11.33-11.33,11.33H561.35V400h50.44c9,0,11,5.3,11.33,11.33v1.76c-.3,6-2.36,11.33-11.33,11.33H561.35ZM944,361.94v1.76c-.29,6-2.35,11.32-11.32,11.32H894.44v90.74c0,10-6.47,11.32-13.23,11.32h-.45c-6.91,0-13.23-1.32-13.23-11.32V375H829.29c-9,0-11-5.29-11.32-11.32v-1.76c.29-6,2.35-11.33,11.32-11.33H932.82c8.83,0,10.89,5.3,11.18,11.33M698.12,395v70.89c0,10-6.47,11.32-13.24,11.32h-.44c-6.91,0-13.23-1.32-13.23-11.32v-104c0-10,6.47-11.33,13.23-11.33h.44c5.59,0,9.85,5,9.85,5l72.95,77.21V361.94c0-10,6.47-11.33,13.23-11.33h.44c6.91,0,13.24,1.33,13.24,11.33v104c0,10-6.47,11.32-13.24,11.32h-.44c-5.59,0-9.85-5-9.85-5ZM944,361.94v1.76c-.29,6-2.35,11.32-11.32,11.32H894.44v90.74c0,10-6.47,11.32-13.23,11.32h-.45c-6.91,0-13.23-1.32-13.23-11.32V375H829.29c-9,0-11-5.29-11.32-11.32v-1.76c.29-6,2.35-11.33,11.32-11.33H932.82c8.83,0,10.89,5.3,11.18,11.33M698.12,395v70.89c0,10-6.47,11.32-13.24,11.32h-.44c-6.91,0-13.23-1.32-13.23-11.32v-104c0-10,6.47-11.33,13.23-11.33h.44c5.59,0,9.85,5,9.85,5l72.95,77.21V361.94c0-10,6.47-11.33,13.23-11.33h.44c6.91,0,13.24,1.33,13.24,11.33v104c0,10-6.47,11.32-13.24,11.32h-.44c-5.59,0-9.85-5-9.85-5Z"/><path class="cls-1" d="M48.12,590.76c-6.33,6.32-11.47,4.12-16,0l-1.33-1.32c-4.11-4.56-6.47-9.71,0-16l84.86-84.86c6.32-6.32,11.47-4.11,16,0l1.32,1.33c4.12,4.56,6.47,9.7,0,16ZM303,335.91c-6.32,6.32-11.47,4.11-16,0l-1.32-1.33c-4.12-4.56-6.47-9.7,0-16l84.85-84.85c6.32-6.32,11.47-4.12,16,0l1.32,1.32c4.12,4.56,6.47,9.71,0,16Z"/></g></svg>