<svg id="Layer_1" data-name="Layer 1" xmlns="http://www.w3.org/2000/svg" viewBox="0 0 1000 800"><defs><style>.cls-1{fill:#22559e;}.cls-2{fill:#fff;}</style></defs><g id="GM"><path id="rect4057" class="cls-1" d="M217,117H783V683H217Z"/><path id="rect4059" class="cls-2" d="M358.55,496.05H641.76v46H358.55v-46Z"/><path id="polyline4061" class="cls-2" d="M499,259.06h47.85l23.42,155.59,23.93-155.59H641.5V471.65H610V311.55l-26.58,160.1H556.13l-25.65-160.1V471.34H499V259.06"/><path id="path4063" class="cls-2" d="M433.39,326.56h32.34v-15c0-14.71,0-56.9-54.09-56.9-52.91,0-52.91,48.18-52.91,56.9V422c0,32.26,11.8,53.4,42.38,53.6,18.07,0,30.68-11.28,33.35-15.58v11.28l31.27.31V356.46H414.85V382h18.54v33.66c0,17.06-5.34,28.68-21.24,28.68s-21-12.37-21-28.68V311.55c0-8.46,0-27.75,21-27.75,21.24,0,21.24,19.6,21.24,27.75v15"/></g></svg>