<svg id="Layer_1" data-name="Layer 1" xmlns="http://www.w3.org/2000/svg" viewBox="0 0 1000 800"><defs><style>.cls-1{fill:#572642;}</style></defs><g id="MOD"><rect class="cls-1" x="169" y="132.56" width="11.07" height="533.11"/><polygon points="235.09 434.89 252.14 434.89 281.67 513.28 311.2 434.89 328.25 434.89 328.25 528.23 316.47 528.23 316.47 450.53 316.12 450.53 286.94 528.23 276.4 528.23 247.22 450.53 246.87 450.53 246.87 528.23 235.09 528.23 235.09 434.89"/><path d="M344.07,460.55h11.07v67.68H344.07Zm11.07-12.13H344.07V434.89h11.07Z"/><path d="M368.68,460.55h10.54v10.73h.18c4.74-8.44,12.3-12.31,22-12.31,17.75,0,23.38,10.2,23.38,24.79v44.47H413.67V482.35c0-8.26-5.27-13.54-13.71-13.54-13.53,0-20,9-20,21.27v38.15H368.85V460.55Z"/><path d="M438.46,460.55h11.07v67.68H438.46Zm11.25-12.13H438.63V434.89h11.08Z"/><path d="M470.45,507c.35,10,9,13,18.1,13,6.86,0,16.35-1.58,16.35-10,0-8.61-11.07-10-22.15-12.47s-22.15-6.16-22.15-19.16c0-13.54,13.54-19.16,25.32-19.16,14.94,0,26.89,4.74,27.77,21.27H502.61C501.91,471.8,494.18,469,487,469c-6.68,0-14.41,1.76-14.41,8.61,0,7.91,11.77,9.32,22.14,11.78,11.08,2.46,22.15,6.15,22.15,19.16,0,16.17-15.11,21.27-28.83,21.27-15.11,0-27.94-6.15-28.65-22.85Z"/><path d="M541.64,460.55h13.53v9.85H541.64v42c0,5.09,1.4,6,8.43,6h5.1v9.85h-8.44c-11.6,0-16.17-2.29-16.17-14.77V470.4H519.14v-9.85h11.42V440.34h11.08Z"/><path d="M563.26,460.55H573.8v14.24H574c5.45-10.9,12.83-16.17,25-15.82v11.78c-17.93,0-24.44,10.19-24.44,27.42v30.06H563.43V460.55Z"/><path d="M635.5,537.37c-5.1,13.18-9.67,18.1-19.69,18.1a19.37,19.37,0,0,1-7.73-1.23V544c2.11.71,4.39,1.59,6.5,1.59,4.57,0,7-2.29,9.14-6.16l4.57-11.6L601.4,460.55h12.65l19.69,55.37h.18l19-55.37h11.78Z"/><path d="M262.16,657.59c11.6,0,21.09-9.14,21.09-25.48,0-16.53-9.49-25.67-21.09-25.67s-21.09,9.14-21.09,25.67c.17,16.17,9.49,25.48,21.09,25.48m0-61c21.44,0,32.87,15.64,32.87,35.51,0,19.68-11.43,35.33-32.87,35.33s-32.87-15.65-32.87-35.33c.18-20,11.42-35.51,32.87-35.51"/><path d="M308.56,607.85H297.14V598h11.42V588c0-11.08,6.51-16.7,18.63-16.7a25.67,25.67,0,0,1,7.21,1.05V582a19.73,19.73,0,0,0-6.33-.88c-5.27,0-8.43,1.76-8.43,7.56v9.49h13V608h-13v57.82H308.56Z"/><path d="M390.65,655.31h20.74c8.44,0,31.46-2.29,31.46-36.74,0-22.32-8.26-35.68-31.11-35.68H390.82v72.42Zm-12.48-83h32c28.82,0,44.82,14.42,44.82,44.47,0,31.29-13.71,48.87-44.82,48.87h-32Z"/><path d="M513,625.43c-.52-10.55-8.43-19.16-19.51-19.16-11.6,0-18.63,8.79-19.33,19.16Zm10.73,18.8c-3,14.94-13.71,23-29,23-21.62,0-31.81-14.94-32.51-35.68,0-20.21,13.36-35.16,31.81-35.16,23.91,0,31.29,22.33,30.59,38.67H474c-.35,11.78,6.33,22.33,21.1,22.33,9.14,0,15.64-4.4,17.57-13.19Z"/><path d="M537.42,607.85H526V598h11.43V588c0-11.08,6.5-16.7,18.63-16.7a25.67,25.67,0,0,1,7.21,1.05V582a19.13,19.13,0,0,0-6.33-.88c-5.45,0-8.44,1.76-8.44,7.56v9.49h13V608H548.67v57.82H537.59v-58Z"/><path d="M614.05,625.43c-.52-10.55-8.43-19.16-19.51-19.16-11.6,0-18.63,8.79-19.33,19.16Zm10.73,18.8c-3,14.94-13.72,23-29,23-21.62,0-31.81-14.94-32.51-35.68,0-20.21,13.35-35.16,31.81-35.16,23.9,0,31.29,22.33,30.58,38.67H575c-.35,11.78,6.33,22.33,21.09,22.33,9.14,0,15.65-4.4,17.58-13.19Z"/><path d="M635,598h10.55v10.72h.17c4.75-8.44,12.31-12.31,22-12.31,17.76,0,23.38,10.2,23.38,24.79v44.47H680V619.8c0-8.26-5.28-13.53-13.71-13.53-13.54,0-20,9-20,21.27v38.14H635.15V598Z"/><path d="M750.63,619.8c-1.76-8.43-7.56-13.53-16.7-13.53-16.17,0-21.09,12.65-21.09,26.36,0,12.48,5.62,24.79,19.68,24.79,10.72,0,17.23-6.33,18.63-16.53h11.43c-2.46,16.53-12.83,26.37-29.88,26.37-20.74,0-31.64-14.41-31.64-34.63s10.55-36.21,32-36.21c15.29,0,27.6,7.21,29.18,23.21h-11.6Z"/><path d="M819.35,625.43c-.52-10.55-8.43-19.16-19.51-19.16-11.6,0-18.63,8.79-19.33,19.16Zm10.73,18.8c-3,14.94-13.71,23-29,23-21.62,0-31.81-14.94-32.51-35.68,0-20.21,13.35-35.16,31.81-35.16,23.91,0,31.29,22.33,30.58,38.67H780.33c-.35,11.78,6.33,22.33,21.1,22.33,9.14,0,15.64-4.4,17.57-13.19Z"/><path d="M344.6,212l3.51-17.4a4.16,4.16,0,0,1-1.93-1.05c-1.58,1.75-4.92,4.74-7.91,4.74h-.35a3.35,3.35,0,0,1-2.29-.88,2.14,2.14,0,0,0,0-2.81l-.17-.17v.17a1.28,1.28,0,0,1-.53,1.06h-.35a1,1,0,0,1-.88-.53,2.42,2.42,0,0,1-.35-1.06v-.7l.7.18h.18c.35,0,.52-.35.7-.71a1.06,1.06,0,0,0-.53-1l-.7-.18a3,3,0,0,1,.35-.88c.35-.52.7-1.05,1.41-1.05h.17a1,1,0,0,1,.88.53,2.48,2.48,0,0,1,.35,1.23.64.64,0,0,1-.17.52c0,.18.17.18.35.18a2.56,2.56,0,0,0,1-.35,2.74,2.74,0,0,0,1.06-1.41c0-.17.17-.35.17-.52a4.29,4.29,0,0,0-1.05-3.87,2.26,2.26,0,0,0-1.76-.7h0a3.15,3.15,0,0,0-1.76.7,7.68,7.68,0,0,0-1.76,2.81V189l-.52,1.58c0,.35-.18.53-.18.88h-.35c0-.35.18-.53.18-.88l.52-1.58c.53-1.23,1.06-2.29,1.59-3.52a5.72,5.72,0,0,0,.7-2.46,5.19,5.19,0,0,0-.35-2.28c-.35-1.06-1.76-5.28-1.76-5.28s-2.46,3.34-3,4a3.74,3.74,0,0,0-.7,1.94,6.68,6.68,0,0,0,.17,2.63c.18,1.41.53,2.64.71,4.05v2.63h-.35v-2.81a6.91,6.91,0,0,0-1.06-3.34A3.46,3.46,0,0,0,327,183a2.18,2.18,0,0,0-1.06-.18,1.57,1.57,0,0,0-.88.18,3.24,3.24,0,0,0-1.93,3.16v.53a2.7,2.7,0,0,0,.7,1.76,2.12,2.12,0,0,0,1.41.88h.18v-.53a1.5,1.5,0,0,1,.52-1.05.65.65,0,0,1,.53-.18.64.64,0,0,1,.53.18,2.55,2.55,0,0,1,1.23,1.75,2,2,0,0,1,.17.88l-.7-.17h-.17c-.36,0-.53.35-.71.7a1.05,1.05,0,0,0,.53,1.05l.7.18c0,.18-.17.35-.17.7a3.56,3.56,0,0,1-.53.88.64.64,0,0,1-.53.18.93.93,0,0,1-.7-.35,1.05,1.05,0,0,1-.18-1.23v-.18h-.17c-.88.35-1.23,1.41-.53,2.64a8.85,8.85,0,0,1-2.11.17h-1.23c-4.39-.52-7-4.57-7.91-6.85a1.08,1.08,0,0,1-.7.17h-.7a3.25,3.25,0,0,1-1.41-.35c-.88,2.11-3.34,6.33-7.91,6.86h-1.23c-.88,0-1.58-.18-2.11-.18.7-1.23.35-2.28-.53-2.64h-.17v.18a2.92,2.92,0,0,1-.18,1.23,1.29,1.29,0,0,1-.7.35.67.67,0,0,1-.53-.17,4,4,0,0,1-.53-.88,1.38,1.38,0,0,1-.17-.71l.52-.17a.85.85,0,0,0,.53-1.06.75.75,0,0,0-.7-.7h-.18l-.7.18a1.86,1.86,0,0,1,.18-.88,2.49,2.49,0,0,1,1.23-1.76.63.63,0,0,0,.35-.18.65.65,0,0,1,.53.18,1.06,1.06,0,0,1,.52,1v.53h0a3.84,3.84,0,0,0,1.41-.88,18.69,18.69,0,0,0,.7-1.75V186a3.17,3.17,0,0,0-1.93-3.17,1.63,1.63,0,0,0-.88-.17,2.34,2.34,0,0,0-1.06.17,4.62,4.62,0,0,0-1.58,1.59,12.19,12.19,0,0,0-1.05,3.34v.17c0,.53-.18,1.23-.18,1.76v.88h-.35a1.63,1.63,0,0,0-.17-.88v-1.76c.17-1.4.52-2.63.7-4a13.78,13.78,0,0,0,.17-2.64,6.22,6.22,0,0,0-.7-1.93c-.53-.88-3-4-3-4s-1.58,4.21-1.76,5.27a10.59,10.59,0,0,0-.35,2.28,12.76,12.76,0,0,0,.71,2.47,21.61,21.61,0,0,1,1.58,3.51l.53,1.58c0,.35.17.53.17.88H292a7.3,7.3,0,0,1-.18-.88l-.52-1.58v-.18a7.77,7.77,0,0,0-1.76-2.81,2.29,2.29,0,0,0-1.76-.7h0a3.15,3.15,0,0,0-1.76.7,4.29,4.29,0,0,0-1.05,3.87c0,.18.17.35.17.53a4.36,4.36,0,0,0,1.06,1.4,2.42,2.42,0,0,0,1.05.35c.18,0,.36,0,.36-.17s-.18-.35-.18-.53a1.48,1.48,0,0,1,.35-1.23,1,1,0,0,1,.88-.53h.18a1.52,1.52,0,0,1,1.4,1.06,2.79,2.79,0,0,1,.35.88l-.7.17a.87.87,0,0,0-.53,1.06.75.75,0,0,0,.71.7h.17l.71-.17v.7a1.83,1.83,0,0,1-.36,1.05,1,1,0,0,1-.88.53h-.35c-.35-.18-.35-.53-.52-1.05v-.18c-.18,0-.18,0-.18.18a2.14,2.14,0,0,0,0,2.81,5,5,0,0,1-2.28.7h-.36c-2.81,0-6.32-3-7.91-4.74a3.06,3.06,0,0,1-1.93,1h0l3.52,17.4a88.17,88.17,0,0,1,32.34-6.15A95.75,95.75,0,0,1,344.6,212"/><path d="M312.25,208.15a85.22,85.22,0,0,0-31.81,6.15c-.18,0-.35.17-.53.17h0c-.17,0-.35.18-.53.18A3.55,3.55,0,0,0,278,219a3.37,3.37,0,0,0,3.16,2.11,4,4,0,0,0,1.41-.17,78.36,78.36,0,0,1,29.7-5.8A77.12,77.12,0,0,1,342,221a3.54,3.54,0,0,0,1.41.17A3.93,3.93,0,0,0,346.7,219a3.6,3.6,0,0,0-1.4-4.39.64.64,0,0,0-.53-.18h0c-.17,0-.35-.17-.53-.17a82.84,82.84,0,0,0-32-6.15"/><path d="M312.25,219.57a74,74,0,1,1-74,74,68.58,68.58,0,0,1,1.76-16c0-.18.18-.36.18-.53v-.18c0-.17.17-.53.17-.7a73.91,73.91,0,0,1,71.89-56.6M242.12,264a74.24,74.24,0,0,0-6,29.71,76.3,76.3,0,0,0,46.58,70.3,76.77,76.77,0,0,0,59.41,0,76.45,76.45,0,0,0,40.61-40.6,74.14,74.14,0,0,0,6-29.7,76.26,76.26,0,0,0-46.58-70.31,74,74,0,0,0-29.7-6A75.59,75.59,0,0,0,242.12,264"/><path d="M308.56,381.46c0,4.92,3.87,9.14,3.87,9.14s3.87-4.05,3.87-9.14c0-4.93-3.87-9.14-3.87-9.14s-3.87,4-3.87,9.14"/><path d="M299.6,373.37c-4.4,2.46-6.15,7.73-6.15,7.73s5.45,1.41,9.84-1.05,6.15-7.73,6.15-7.73-5.45-1.41-9.84,1.05"/><path d="M298,371.09s-5.1-2.11-9.85-.36-7.2,6.68-7.2,6.68,5.09,2.11,9.84.35c4.57-1.75,7.21-6.67,7.21-6.67"/><path d="M286.94,368.1s-4.74-2.81-9.66-1.76-8.09,5.62-8.09,5.62,4.75,2.82,9.67,1.76c4.74-1.05,8.08-5.62,8.08-5.62"/><path d="M276.4,363.7s-4.22-3.51-9.32-3.16c-4.92.35-8.79,4.39-8.79,4.39s4.22,3.52,9.32,3.17c4.92-.35,8.79-4.4,8.79-4.4"/><path d="M257.76,353.16c-4.92-.35-9.31,3-9.31,3s3.69,4,8.79,4.57c4.92.35,9.31-3,9.31-3s-3.69-4.05-8.79-4.57"/><path d="M257.76,350.34s-3.16-4.57-7.91-5.8c-4.92-1.05-9.66,1.59-9.66,1.59s3.16,4.57,7.91,5.8,9.66-1.59,9.66-1.59"/><path d="M250,341.91s-2.46-4.92-7-6.86c-4.57-1.76-9.84.18-9.84.18s2.46,4.92,7,6.85c4.74,1.94,9.84-.17,9.84-.17"/><path d="M243.7,332.42s-1.58-5.28-6-7.74-9.67-1.23-9.67-1.23,1.58,5.27,6,7.74c4.21,2.46,9.66,1.23,9.66,1.23"/><path d="M229.29,319.41c3.87,3.16,9.49,2.64,9.49,2.64s-.88-5.45-4.74-8.62-9.5-2.63-9.5-2.63.88,5.62,4.75,8.61"/><path d="M235.44,311.15s0-5.63-3.51-9.14c-3.52-3.69-9-4.05-9-4.05s0,5.63,3.52,9.14c3.51,3.7,9,4,9,4"/><path d="M233.68,299.72s.71-5.45-2.11-9.66c-2.81-4.05-8.26-5.28-8.26-5.28s-.7,5.45,2.11,9.67,8.26,5.27,8.26,5.27"/><path d="M233.68,288.3s1.59-5.28-.7-9.85c-2.28-4.39-7.56-6.32-7.56-6.32s-1.58,5.27.71,9.84c2.28,4.39,7.55,6.33,7.55,6.33"/><path d="M235.27,277.05s2.28-5.1.7-9.85-6.5-7.38-6.5-7.38-2.29,5.1-.71,9.85,6.51,7.38,6.51,7.38"/><path d="M238.43,266s3-4.74,2.11-9.66-5.27-8.26-5.27-8.26-3,4.57-2.11,9.66c.88,4.92,5.27,8.26,5.27,8.26"/><path d="M243.35,255.6s3.69-4.21,3.52-9.14-4.05-9-4.05-9-3.69,4.22-3.51,9.14c0,5.1,4,9,4,9"/><path d="M254.25,237.5c.53-4.92-2.81-9.49-2.81-9.49s-4.22,3.69-4.75,8.61,2.64,9.49,2.64,9.49,4.39-3.69,4.92-8.61"/><path d="M263,229.59c1.23-4.92-1.41-9.67-1.41-9.67s-4.74,3-6,7.74c-1.24,4.92,1.4,9.66,1.4,9.66s4.75-2.81,6-7.73"/><path d="M272.88,223.26c1.93-4.57,0-9.84,0-9.84s-5.1,2.28-7,6.85-.18,9.85-.18,9.85,5.28-2.29,7.21-6.86"/><path d="M324.91,373.37c-4.4-2.46-9.84-1.05-9.84-1.05s1.75,5.27,6.15,7.73,9.84,1.05,9.84,1.05-1.76-5.44-6.15-7.73"/><path d="M336.33,370.56c-4.74-1.76-9.84.35-9.84.35s2.46,4.92,7.21,6.68,9.84-.35,9.84-.35-2.64-4.92-7.21-6.68"/><path d="M347.23,366.34c-4.92-1-9.67,1.76-9.67,1.76s3.17,4.57,8.09,5.62,9.67-1.76,9.67-1.76-3.17-4.57-8.09-5.62"/><path d="M357.43,360.54c-4.92-.35-9.32,3.16-9.32,3.16s3.87,4.05,8.79,4.4,9.32-3.17,9.32-3.17-3.87-4.21-8.79-4.39"/><path d="M366.57,353.16c-4.92.35-8.79,4.57-8.79,4.57s4.39,3.34,9.31,3,8.79-4.57,8.79-4.57-4.22-3.34-9.31-3"/><path d="M374.65,344.72c-4.92,1-7.91,5.8-7.91,5.8s4.75,2.81,9.67,1.58c4.92-1.05,7.91-5.8,7.91-5.8s-4.75-2.81-9.67-1.58"/><path d="M381.33,335.05c-4.74,1.76-7,6.86-7,6.86s5.1,2.11,9.84.17c4.75-1.75,7-6.85,7-6.85s-5.09-1.94-9.84-.18"/><path d="M386.78,324.68c-4.39,2.46-6,7.74-6,7.74s5.45,1.23,9.67-1.23c4.4-2.47,6-7.74,6-7.74s-5.45-1.4-9.67,1.23"/><path d="M390.47,313.43c-3.87,3.17-4.74,8.62-4.74,8.62s5.44.52,9.49-2.64c3.86-3.17,4.74-8.61,4.74-8.61s-5.62-.36-9.49,2.63"/><path d="M392.41,302c-3.52,3.69-3.52,9.14-3.52,9.14s5.45-.35,9-4,3.52-9.14,3.52-9.14-5.45.36-9,4.05"/><path d="M392.76,290.23c-2.82,4-2.11,9.67-2.11,9.67s5.45-1.06,8.26-5.27C401.72,290.58,401,285,401,285s-5.27,1.23-8.26,5.27"/><path d="M391.53,278.45c-2.29,4.4-.71,9.85-.71,9.85s5.28-1.94,7.56-6.33.7-9.84.7-9.84-5.27,1.93-7.55,6.32"/><path d="M389.07,277.05s4.92-2.64,6.5-7.38-.7-9.85-.7-9.85-4.93,2.64-6.51,7.38.71,9.85.71,9.85"/><path d="M385.9,266s4.4-3.34,5.27-8.26-2.1-9.66-2.1-9.66-4.4,3.34-5.28,8.26c-.88,5.09,2.11,9.66,2.11,9.66"/><path d="M381.16,255.6s3.86-3.86,4-9c.17-4.92-3.52-9.14-3.52-9.14s-3.86,3.87-4,9c-.18,4.93,3.52,9.14,3.52,9.14"/><path d="M374.83,245.94s3.34-4.4,2.63-9.5c-.52-4.92-4.74-8.61-4.74-8.61s-3.34,4.4-2.81,9.49c.7,5.1,4.92,8.62,4.92,8.62"/><path d="M367.27,237.5s2.64-4.92,1.41-9.67c-1.23-4.92-6-7.73-6-7.73s-2.64,4.92-1.41,9.67c1.41,4.74,6,7.73,6,7.73"/><path d="M351.45,213.42s-1.93,5.27.18,9.84c1.93,4.57,7,6.86,7,6.86s1.93-5.28-.18-9.85c-1.93-4.74-7-6.85-7-6.85"/><path d="M341.78,332.06h0m-.35-.17h0m-4-1.23h0m-50.45,0h0m-4,1.23h0m-.35.17h0m64.15-12.3L345,315.19s-3.52,2.29-5.28,3.34A27.18,27.18,0,0,0,333,323.8,28.56,28.56,0,0,0,329.3,330h1.76a20.26,20.26,0,0,1,4.22.35h.18c.17,0,.52.17.7.17h.35a20.93,20.93,0,0,1-5.62,11.25,25.5,25.5,0,0,1-4.75,3.87,15,15,0,0,1-2.81,1.58h-1.06c-4,0-7.38-3-7.38-6.68V315.89c-1.05,0-2.11.18-3.16.18a18.73,18.73,0,0,1-3.17-.18V340.5c0,3.69-3.34,6.68-7.38,6.68h-1.05a23.5,23.5,0,0,1-2.82-1.58,27.51,27.51,0,0,1-3.69-3l-1.05-1.05a23.35,23.35,0,0,1-5.63-11.25h.35c.18,0,.53-.18.71-.18h.17a20.31,20.31,0,0,1,4.22-.35h1.76a28.15,28.15,0,0,0-3.69-6.15,27.31,27.31,0,0,0-6.68-5.28c-1.76-1.05-5.27-3.34-5.27-3.34l-1.76,4.57c-.88,2.29-2.29,4.4-2.81,8.62a22,22,0,0,0,.35,7.56,39.15,39.15,0,0,1,5.8-3.17.17.17,0,0,0,.17-.17h0a.18.18,0,0,0,.18-.18h.88c.17.88,1.76,9.32,5.8,14.24h0l.17.17a8.91,8.91,0,0,0,1.23,1.23A71.64,71.64,0,0,0,295,353c3.16,2.29,7,4.57,9.84,6.68a48,48,0,0,1,6.15,5.27,47.71,47.71,0,0,1,6.16-5.27c2.81-2.11,6.67-4.57,10-6.68a70.24,70.24,0,0,0,6.51-5.1c.17-.17.35-.35.53-.35h0l.87-.88h0c.18-.17.18-.35.36-.52a10.22,10.22,0,0,0,.87-1.41c.18-.35.36-.53.53-.88a15.24,15.24,0,0,0,1.41-3v-.17c.53-1.23.88-2.46,1.23-3.52h0a20.89,20.89,0,0,0,.7-2.81c.18-1.06.35-1.76.35-1.93h.71a.17.17,0,0,1,.17.17h.18a39.83,39.83,0,0,1,5.8,3.17,17.91,17.91,0,0,0,.35-7.56c1.23-4.05-.18-6.15-1.06-8.44"/><path d="M307.51,238.73a6.5,6.5,0,1,1,9.14,0,4.14,4.14,0,0,1-1.41,1.05h0a3.17,3.17,0,0,0-6.33,0V240c-.35-.35-.87-.7-1.4-1.23m1.58,16.52v13.89l3.16,1.58,3.17-1.58V255.25h8.79l23.37-3.69v-5.45H315.42v-1.76a10.79,10.79,0,0,0-3.17-21.09A10.66,10.66,0,0,0,301.53,234a10.81,10.81,0,0,0,7.56,10.37v1.76H276.92v5.45l23.38,3.69Z"/><path d="M314.71,272c.18.18.53.18.71.35,2.63,1.41,5.27,2.64,7.73,4a49.69,49.69,0,0,1,7.38-3.16c11.78-6.5,21.1-11.6,21.8-11.95a52,52,0,0,0,7.56-5.1c1.05-.88,2.28-2.11,3.34-3.16s1.93-2.11,1.93-2.11l1.23-1.41-1.76.18-2.81.35a26.22,26.22,0,0,0-4.39,1.05,71.12,71.12,0,0,0-8.44,3.52l-33.4,17.05a3.07,3.07,0,0,1-.88.35"/><path d="M277.8,312a6.13,6.13,0,0,0,1.76-.36,4.08,4.08,0,0,0,1.76-2.1,3.94,3.94,0,0,0-.18-2.82,3.5,3.5,0,0,0-3.16-1.93,1.3,1.3,0,0,0-.88.18l-.7-1.41-.18-.35c1.93-1.06,7.56-4.22,14.77-8.09a31.28,31.28,0,0,1-7-1.58,26.39,26.39,0,0,1-6-2.64l-5.8,3c-.35.18-.53.35-.71.35l-.87-1.58a3.41,3.41,0,0,0,.7-4.39,3.7,3.7,0,0,0-3.16-1.94,6.06,6.06,0,0,0-1.76.36,4.08,4.08,0,0,0-1.76,2.1,3.89,3.89,0,0,0,.18,2.82l2.81,5.09h-.35a2.44,2.44,0,0,0-1.06.36,3,3,0,0,0-.88.7.6.6,0,0,0-.17.35h-.35a1.34,1.34,0,0,0-.88.35,2.93,2.93,0,0,0-.88.71c0,.17-.18.17-.18.35h-.35a2.42,2.42,0,0,0-1.05.35,2.88,2.88,0,0,0-.88.7c0,.18-.18.18-.18.35h-.35a1.39,1.39,0,0,0-.88.35,1.83,1.83,0,0,0-.88.71l-.17.17h-.53a1.39,1.39,0,0,0-.88.35,3.23,3.23,0,0,0-.88.71.17.17,0,0,1-.17.17h-.53a1.32,1.32,0,0,0-.88.36,3,3,0,0,0-.88.7c0,.17-.18.17-.18.17h-.52a1.32,1.32,0,0,0-.88.36,3,3,0,0,0-.88.7l-.18.17h-.52c-.36.18-.71.18-.88.36s-.53.35-.71.52h-.52a5,5,0,0,0-3.34,1.59,4.85,4.85,0,0,0,3.51,8.08h.35a4.59,4.59,0,0,0,3.87-2.28h0a1.39,1.39,0,0,0,.7-.71h.53c.18,0,.53-.17.7-.17s.36-.18.53-.18a1.39,1.39,0,0,0,.71-.7h.52c.18,0,.53-.18.71-.18s.35-.17.52-.35a1.42,1.42,0,0,0,.71-.7h.52c.18,0,.53-.18.71-.18s.35-.17.52-.35a1.39,1.39,0,0,0,.71-.7h.52c.18,0,.53-.18.71-.18s.35-.17.52-.17a1.4,1.4,0,0,0,.71-.71h.52c.18,0,.53-.17.71-.17s.35-.18.53-.35a1.42,1.42,0,0,0,.7-.71H266c.17,0,.52-.17.7-.17s.35-.18.53-.18c.35-.18.52-.53.7-.7h.53c.17,0,.52-.18.7-.18s.35-.17.53-.17a1.42,1.42,0,0,0,.7-.71H271c.17,0,.52-.17.7-.17s.18,0,.18-.18l1.23,2.29,1.4,2.63A3.79,3.79,0,0,0,277.8,312"/><path d="M261.1,253c1.06,1.05,2.46,2.28,3.34,3.16a72,72,0,0,0,7.56,5.1c.71.35,8.26,4.57,18.46,10.19a47.93,47.93,0,0,1,12.83,4.05,4.29,4.29,0,0,1,1.23.7,9.75,9.75,0,0,1,1.23.7h0a25.06,25.06,0,0,1,3.16,2.11,11.66,11.66,0,0,1,2.11,2.11,5.86,5.86,0,0,1,1.76-.18,7.68,7.68,0,0,1,2.29.36h0a49.18,49.18,0,0,1,5.44-3.17c-1.75-.88-3.51-1.93-5.44-2.81l-3.17-1.58a4.54,4.54,0,0,1-1.23-.7,4.59,4.59,0,0,1-1.23-.71,1.36,1.36,0,0,0-.7-.35c-17.05-8.79-32.34-16.52-33.4-17.23a60.43,60.43,0,0,0-8.44-3.51,32.79,32.79,0,0,0-4.39-1.06c-1.58-.17-2.81-.35-2.81-.35l-1.76-.17L259,251c.36-.17,1.06.88,2.11,1.94"/><path d="M376.41,307.63h-.53c-.17-.17-.52-.35-.7-.53a1.39,1.39,0,0,0-.88-.35h-.53a.17.17,0,0,0-.17-.17,1.83,1.83,0,0,0-.88-.71,3.07,3.07,0,0,0-.88-.35h-.53l-.17-.17a1.83,1.83,0,0,0-.88-.71,3.07,3.07,0,0,0-.88-.35h-.53a.17.17,0,0,0-.17-.17,1.83,1.83,0,0,0-.88-.71,2.6,2.6,0,0,0-1.06-.35h-.35a.17.17,0,0,0-.17-.17,1.77,1.77,0,0,0-.88-.71,2.6,2.6,0,0,0-1.06-.35h-.35l-.18-.17a1.71,1.71,0,0,0-.87-.71,2.65,2.65,0,0,0-1.06-.35h-.35c0-.17-.18-.17-.18-.35a1.69,1.69,0,0,0-.87-.7,3,3,0,0,0-.88-.35h-.36c0-.18-.17-.18-.17-.36a1.81,1.81,0,0,0-.88-.7,2.42,2.42,0,0,0-1.05-.35h-.36l2.82-5.1a3.17,3.17,0,0,0,.17-2.81,4.1,4.1,0,0,0-1.76-2.11,2.87,2.87,0,0,0-1.75-.35,3.33,3.33,0,0,0-3.17,1.93,3.17,3.17,0,0,0-.17,2.81,2.54,2.54,0,0,0,1.05,1.59l-.88,1.58c-.17-.18-.52-.18-.7-.35l-7.73-4.05a21,21,0,0,1-6.86,3.17c0,.17.18.53.18.7a4.46,4.46,0,0,1-1.06,3c5.63,3.16,10,5.45,11.6,6.33l-.35.52-.7,1.06c-.35,0-.53-.18-.88-.18a3.31,3.31,0,0,0-3.16,1.94,3.86,3.86,0,0,0-.36,2.81,4.15,4.15,0,0,0,1.76,2.11,2.92,2.92,0,0,0,1.76.35,3.3,3.3,0,0,0,3.16-1.93l1.23-2.46,1.23-2.29.18.18a1.36,1.36,0,0,0,.7.17h.53c.18.35.53.53.7.7a.64.64,0,0,0,.53.18,1.3,1.3,0,0,0,.7.18H356c.18.35.53.52.7.7.18,0,.36.18.53.18a1.09,1.09,0,0,0,.7.17h.53c.18.35.53.53.7.7a.65.65,0,0,0,.53.18,1.06,1.06,0,0,0,.71.18h.52c.18.35.53.52.71.7a.64.64,0,0,0,.52.17,1.06,1.06,0,0,0,.71.18h.52a1.35,1.35,0,0,0,.71.7c.17.18.35.18.52.35a1.06,1.06,0,0,0,.71.18h.52a1.39,1.39,0,0,0,.71.7c.17.18.35.18.52.36a1.1,1.1,0,0,0,.71.17h.52a1.39,1.39,0,0,0,.71.7.63.63,0,0,0,.53.18,1,1,0,0,0,.7.18h.53c.17.35.52.52.7.7h0a5.52,5.52,0,0,0,3.87,2.28h.17a4.81,4.81,0,0,0,4.75-4.57,5.34,5.34,0,0,0-1.23-3.51c-.18-.88-1.41-1.41-2.64-1.41"/><path d="M277.8,288.47a9.35,9.35,0,0,1,1.23.71,4.29,4.29,0,0,1,1.23.7,23.91,23.91,0,0,0,4.22,1.76,30.12,30.12,0,0,0,9.84,1.58h2.29c1.05,0,1.93-.18,2.64-.18a8.2,8.2,0,0,1,1.4-.17l1.06,4.92-7.39,10s3,5.27,14.77,6.15c1.05,0,2.11.18,3.16.18a17.7,17.7,0,0,0,3.17-.18c11.77-.88,14.24-6.15,14.24-6.15l-9.32-8.26,1.76-4.4h0c-.35,0-.71-.17-1.06-.17a8.06,8.06,0,0,0-2.46.35h-.88l-.7-.18c.18,0,.35-.17.7-.35a9.1,9.1,0,0,0,1.23-.7,6.29,6.29,0,0,1,3.34-.88c.18,0,.35.17.71.17l1.58.53a18.09,18.09,0,0,0,2.28.71h.35a5.87,5.87,0,0,0,1.41.17,19.11,19.11,0,0,1,2.11-.17h.7c3,.17,2.82,1.58,2.82,1.58.17-.18.52-.35.7-.53a2.31,2.31,0,0,0,.88-2.29,3.61,3.61,0,0,0-.71-1.05,4.81,4.81,0,0,0-1.05-.88,1.08,1.08,0,0,0-.7-.35c.7-1.93-5.1-2.81-7.56-3.52a55.57,55.57,0,0,1-7.74-3.16,12.14,12.14,0,0,1-2.11-1.05h-.17c-.35-.18-.53-.18-.53-.36h0c-.17,0-.35-.17-.53-.17a5,5,0,0,0-1.75-.35h0a4,4,0,0,0-1.41.17l-1.41.35a6.87,6.87,0,0,0-1.23-1.58l-.52-.53a19.75,19.75,0,0,0-5.1-3.33c-.35-.18-.88-.36-1.23-.53s-.88-.35-1.23-.53a10.34,10.34,0,0,0-2.46-.88,32.76,32.76,0,0,0-4.92-1.4c-1.23-.36-2.46-.53-3.87-.88a70.1,70.1,0,0,0-9.84-1.23c-3.34-.18-6.51-.36-9.5-.36-19.33,0-29,4.93-29,4.93s9.49,1.4,19.69,4c8.26,1.93,12.3,5.1,16.87,7.73"/><path d="M346.35,271.77a51.83,51.83,0,0,0-14.94,3.52,43.77,43.77,0,0,0-5.8,2.46c-.35.18-.88.35-1.23.53a4.29,4.29,0,0,0-1.23.7c-3.16,1.76-5.62,3.17-6.68,3.87l.53.17h.18c.87.36,7,2.29,9.31,2.82.35,0,.7.17,1.06.17,3.69.71,6.68,1.58,7.73,3.34.18.18.18.35.18.71.35.35.87.7,1.23,1.05a18.17,18.17,0,0,0,5.8-2.29c.35-.17.7-.52,1.05-.7s.7-.53,1.06-.7c2.1-1.58,4-3.52,7.91-4.92,11.42-4.57,30.4-6.86,30.4-6.86s-17.05-3.87-32-3.87a20.54,20.54,0,0,0-4.57,0"/><path d="M315.94,139.59a3,3,0,0,1-.52,1.76,21.11,21.11,0,0,1,3.86,2.46V135.2a14.54,14.54,0,0,1-3.86,2.46,4,4,0,0,1,.52,1.93"/><path d="M312.25,136.08a3,3,0,0,1,1.76.53,17.73,17.73,0,0,1,2.64-4.05H308a14.85,14.85,0,0,1,2.46,3.87,6.4,6.4,0,0,1,1.75-.35"/><path d="M308.74,139.59a2.88,2.88,0,0,1,.53-1.75,14.44,14.44,0,0,1-3.87-2.46V144a15,15,0,0,1,3.87-2.64,2.89,2.89,0,0,1-.53-1.76"/><path d="M316.65,146.63a14.5,14.5,0,0,1-2.46-3.87,3.42,3.42,0,0,1-1.76.53,3,3,0,0,1-1.76-.53,21,21,0,0,1-2.46,3.87Z"/><path d="M310.85,141.88a2.15,2.15,0,0,0,1.58.53,2.85,2.85,0,0,0,1.58-.53c.35-.18.53-.53.7-.7a5.08,5.08,0,0,0,.36-1.59,2.87,2.87,0,0,0-.53-1.58c-.18-.35-.53-.52-.7-.7a2.18,2.18,0,0,0-1.59-.53,2.87,2.87,0,0,0-1.58.53c-.35.18-.53.53-.7.7a5.06,5.06,0,0,0-.35,1.58,2.86,2.86,0,0,0,.52,1.59c.18.17.36.52.71.7"/><path d="M310.85,163.5a2.15,2.15,0,0,0,1.58.53,2.85,2.85,0,0,0,1.58-.53c.35-.18.53-.53.7-.7a2.12,2.12,0,0,0,.53-1.59,2.79,2.79,0,0,0-.53-1.58c-.17-.35-.52-.52-.7-.7a2.15,2.15,0,0,0-1.58-.53,2.82,2.82,0,0,0-1.58.53c-.35.18-.53.53-.71.7a3,3,0,0,0-.52,1.76,2.81,2.81,0,0,0,.52,1.58,2.56,2.56,0,0,0,.71.53"/><path d="M310.85,169.3a2.15,2.15,0,0,0,1.58.53,2.85,2.85,0,0,0,1.58-.53c.35-.18.53-.53.7-.7a2.11,2.11,0,0,0,.53-1.58,2.8,2.8,0,0,0-.53-1.59c-.17-.35-.52-.52-.7-.7a2.15,2.15,0,0,0-1.58-.53,2.82,2.82,0,0,0-1.58.53c-.35.18-.53.53-.71.7a2.68,2.68,0,0,0,0,3.17c.18.17.36.52.71.7"/><path d="M310.85,174.92a2.11,2.11,0,0,0,1.58.53,2.77,2.77,0,0,0,1.58-.53,1.33,1.33,0,0,0,.7-.7,2.11,2.11,0,0,0,.53-1.58,2,2,0,0,0-.53-1.41c-.17-.35-.52-.52-.7-.7a2.15,2.15,0,0,0-1.58-.53,2.82,2.82,0,0,0-1.58.53,1.42,1.42,0,0,0-.71.7,2,2,0,0,0-.52,1.41,2.83,2.83,0,0,0,.52,1.58,1.39,1.39,0,0,0,.71.7"/><path d="M274.29,193a2.15,2.15,0,0,0,1.58.53,2.85,2.85,0,0,0,1.58-.53c.35-.18.53-.53.7-.7a2.14,2.14,0,0,0,.53-1.59,2.79,2.79,0,0,0-.53-1.58c-.17-.35-.52-.53-.7-.7a2.15,2.15,0,0,0-1.58-.53,2.82,2.82,0,0,0-1.58.53c-.35.17-.53.53-.71.7a2.15,2.15,0,0,0-.52,1.58,2.86,2.86,0,0,0,.52,1.59,1.42,1.42,0,0,0,.71.7"/><path d="M310.85,186.88a2.15,2.15,0,0,0,1.58.52,2.83,2.83,0,0,0,1.58-.52,2.59,2.59,0,0,0,.7-.71,2.1,2.1,0,0,0,.53-1.58,2.77,2.77,0,0,0-.53-1.58c-.17-.35-.52-.53-.7-.7a2.47,2.47,0,0,0-1.58-.53,2.82,2.82,0,0,0-1.58.53c-.35.17-.53.52-.71.7a2.66,2.66,0,0,0,0,3.16l.71.71"/><path d="M312.25,158.4a5.8,5.8,0,1,0-5.8-5.8,5.84,5.84,0,0,0,5.8,5.8"/><path d="M274.29,180.9c-1.41-4.39-6.86-14.41,1-21.44a15.79,15.79,0,0,1,9.67-3.69,28,28,0,0,1,8.44,1.75c5.27,1.76,8.61,2.82,14.76,2.82v2.81c-6.68,0-10.19-1.06-15.64-3a24.35,24.35,0,0,0-7.21-1.58,11.71,11.71,0,0,0-8.08,3c-5.1,4.39-3.34,10.37-1.06,16.34a9.85,9.85,0,0,1,.7,2.11Z"/><path d="M303.47,190a27,27,0,0,1,5.62-3.51l-.53-1.06a3.34,3.34,0,0,1,.53-2.64,27.9,27.9,0,0,1-5.62-3.69Z"/><path d="M321.22,190v-10.9a28,28,0,0,1-5.63,3.69,9.39,9.39,0,0,1,.53,1.23,3.44,3.44,0,0,1-.53,2.64,20.71,20.71,0,0,1,5.63,3.34"/><path d="M310.32,181.43a8.34,8.34,0,0,1,1.23-.53h.7a3.57,3.57,0,0,1,1.94.53,27.28,27.28,0,0,1,3.51-5.63H306.8a18.81,18.81,0,0,1,3.52,5.63"/><path d="M275,187.23h.7c.53,0,.88.17,1.41.17a54.51,54.51,0,0,1,3-7.38l-7,2.46Z"/><path d="M284.66,194.44l-2.29-10.73a14.48,14.48,0,0,1-4,4.75,5.59,5.59,0,0,1,.88,1.76,2.44,2.44,0,0,1-.18,1.93,13.64,13.64,0,0,1,5.63,2.29"/><path d="M301.88,154a7.45,7.45,0,0,0-1.05,1.23,4.75,4.75,0,0,0-.18,1.58,1.39,1.39,0,0,0,.35.88,8.39,8.39,0,0,0,1.23,1.05,4.81,4.81,0,0,0,1.59.18,2.56,2.56,0,0,0,1.05-.35,8.49,8.49,0,0,0,1.06-1.23,5,5,0,0,0,.17-1.58,1.29,1.29,0,0,0-.35-.88,7.47,7.47,0,0,0-1.23-1.06,5,5,0,0,0-1.58-.17,1.31,1.31,0,0,0-1.06.35"/><path d="M296.61,152.07a3.68,3.68,0,0,0-1.41.71,3.62,3.62,0,0,0-.7,1.4v1.06a3.55,3.55,0,0,0,.7,1.4,2.16,2.16,0,0,0,1.41.71h1.05a3.48,3.48,0,0,0,1.41-.71,2.15,2.15,0,0,0,.7-1.4v-1.06a3.49,3.49,0,0,0-.7-1.4,2.18,2.18,0,0,0-1.41-.71h-1.05"/><path d="M290.28,149.79a2.39,2.39,0,0,0-1.23,1.05,2.88,2.88,0,0,0-.53,1.59,2.16,2.16,0,0,0,.18,1,2.39,2.39,0,0,0,1.05,1.23,2.65,2.65,0,0,0,1.59.35,2.28,2.28,0,0,0,1.05-.17,2.36,2.36,0,0,0,1.23-1.06,1.78,1.78,0,0,0,.35-1.58c0-.35-.17-.7-.17-1.05a2.36,2.36,0,0,0-1.06-1.23,2.54,2.54,0,0,0-1.58-.36,1.3,1.3,0,0,0-.88.18"/><path d="M282.9,149.61A4,4,0,0,0,282,151a2.51,2.51,0,0,0,0,1.58,4,4,0,0,0,.53.88,3.93,3.93,0,0,0,1.4.88,2.41,2.41,0,0,0,1.59,0,4,4,0,0,0,.88-.53,2.72,2.72,0,0,0,.87-1.4,2.41,2.41,0,0,0,0-1.59,3.68,3.68,0,0,0-.52-.87,2.7,2.7,0,0,0-1.41-.88,2.38,2.38,0,0,0-1.58,0,4,4,0,0,1-.88.52"/><path d="M276.22,151.72a1.57,1.57,0,0,0-.35,1.58,2.8,2.8,0,0,0,.53,1.59c.17.35.52.52.7.7.35.35.88.35,1.58.35a2.75,2.75,0,0,0,1.58-.53c.35-.17.53-.52.71-.7.35-.35.35-.88.35-1.58a2,2,0,0,0-.53-1.41c-.18-.35-.53-.52-.7-.7a2.15,2.15,0,0,0-1.58-.53,2,2,0,0,0-1.41.53,1.18,1.18,0,0,0-.88.7"/><path d="M269.89,156.12a2.5,2.5,0,0,0,.18,1.58,2.34,2.34,0,0,0,1.05,1.23,3.2,3.2,0,0,0,2.64.18,2.36,2.36,0,0,0,1.23-1.06,2.42,2.42,0,0,0,.35-1.05,2.51,2.51,0,0,0-.17-1.59,2.44,2.44,0,0,0-1.06-1.23,2.56,2.56,0,0,0-1.05-.35,2.52,2.52,0,0,0-1.59.18,2.42,2.42,0,0,0-1.23,1.05,2.6,2.6,0,0,0-.35,1.06"/><path d="M265.85,162.27a2.2,2.2,0,0,0,.7,1.41,2.17,2.17,0,0,0,1.41.7H269a3.59,3.59,0,0,0,1.41-.7,2.2,2.2,0,0,0,.7-1.41v-1.06a3.49,3.49,0,0,0-.7-1.4,2.17,2.17,0,0,0-1.41-.7H268a2.47,2.47,0,0,0-2.11,2.1v1.06"/><path d="M264.44,169.3c.36.35.71.88,1.23,1a2.45,2.45,0,0,0,1.59.18,2.56,2.56,0,0,0,1.05-.35c.35-.35.88-.7,1.06-1.23a2.49,2.49,0,0,0,.17-1.58,2.46,2.46,0,0,0-.35-1.06,2.3,2.3,0,0,0-1.23-1.05,2.5,2.5,0,0,0-1.58-.18,2.6,2.6,0,0,0-1.06.35,2.38,2.38,0,0,0-1.05,1.23,2.52,2.52,0,0,0-.18,1.59c.18.52.18.87.35,1.05"/><path d="M266,176.51a2,2,0,0,0,1.4.52,4.94,4.94,0,0,0,1.58-.35,1.35,1.35,0,0,0,.71-.7,2,2,0,0,0,.52-1.41,5.06,5.06,0,0,0-.35-1.58,1.33,1.33,0,0,0-.7-.7,2,2,0,0,0-1.41-.53,5.36,5.36,0,0,0-1.58.35,1.35,1.35,0,0,0-.7.71,2,2,0,0,0-.53,1.4,5.22,5.22,0,0,0,.35,1.58,1.37,1.37,0,0,0,.71.71"/><path d="M268.14,182.66a2.14,2.14,0,0,0,1.58.53,2.87,2.87,0,0,0,1.58-.53c.35-.18.53-.53.7-.7a2.18,2.18,0,0,0,.53-1.59,2.87,2.87,0,0,0-.53-1.58c-.17-.35-.53-.53-.7-.7a2.15,2.15,0,0,0-1.58-.53,2.82,2.82,0,0,0-1.58.53c-.36.17-.53.53-.71.7a2.15,2.15,0,0,0-.53,1.58,2.88,2.88,0,0,0,.53,1.59c.18.17.35.52.71.7"/><path d="M350.4,193a2.18,2.18,0,0,1-1.59.53,2.87,2.87,0,0,1-1.58-.53c-.35-.18-.53-.53-.7-.7a2.18,2.18,0,0,1-.53-1.59,2.87,2.87,0,0,1,.53-1.58c.17-.35.53-.53.7-.7a2.15,2.15,0,0,1,1.58-.53,2.88,2.88,0,0,1,1.59.53c.35.17.52.53.7.7a2.15,2.15,0,0,1,.53,1.58,2.88,2.88,0,0,1-.53,1.59,1.4,1.4,0,0,1-.7.7"/><path d="M350.22,180.9c1.41-4.39,6.86-14.41-1.23-21.44a15.76,15.76,0,0,0-9.67-3.69,27.89,27.89,0,0,0-8.43,1.75c-5.28,1.76-8.62,2.82-14.77,2.82v2.81c6.68,0,10.2-1.06,15.64-3a25.32,25.32,0,0,1,7.56-1.58,12.65,12.65,0,0,1,7.91,3c5.1,4.39,3.34,10.37,1.06,16.34a10.49,10.49,0,0,0-.71,2.11Z"/><path d="M349.69,187.23H349c-.53,0-.88.17-1.41.17a54.47,54.47,0,0,0-3-7.38l7,2.46Z"/><path d="M339.85,194.44l2.28-10.73a14.63,14.63,0,0,0,4.05,4.75,5.38,5.38,0,0,0-.88,1.76,2.4,2.4,0,0,0,.17,1.93,14.69,14.69,0,0,0-5.62,2.29"/><path d="M322.8,154a7.45,7.45,0,0,1,1.05,1.23,4.75,4.75,0,0,1,.18,1.58,1.39,1.39,0,0,1-.35.88,7.45,7.45,0,0,1-1.23,1.05,4.78,4.78,0,0,1-1.58.18,1.34,1.34,0,0,1-.88-.35,7.91,7.91,0,0,1-1.06-1.23,5,5,0,0,1-.17-1.58,1.29,1.29,0,0,1,.35-.88,7.47,7.47,0,0,1,1.23-1.06,5,5,0,0,1,1.58-.17,1.13,1.13,0,0,1,.88.35"/><path d="M327.9,152.07a3.63,3.63,0,0,1,1.4.71,2.18,2.18,0,0,1,.71,1.4v1.06a3.44,3.44,0,0,1-.71,1.4,2.14,2.14,0,0,1-1.4.71h-1.06a3.5,3.5,0,0,1-1.4-.71,2.12,2.12,0,0,1-.71-1.4v-1.06a3.5,3.5,0,0,1,.71-1.4,2.18,2.18,0,0,1,1.4-.71h1.06"/><path d="M334.4,149.79a2.39,2.39,0,0,1,1.23,1.05,2.65,2.65,0,0,1,.35,1.59,2.28,2.28,0,0,1-.17,1,2.36,2.36,0,0,1-1.06,1.23,2.6,2.6,0,0,1-1.58.35,2.28,2.28,0,0,1-1.05-.17,2.36,2.36,0,0,1-1.23-1.06,4.75,4.75,0,0,1-.18-1.58,2.16,2.16,0,0,1,.18-1.05,2.3,2.3,0,0,1,1.05-1.23,2.56,2.56,0,0,1,1.58-.36,1.86,1.86,0,0,1,.88.18"/><path d="M341.61,149.61a4,4,0,0,1,.88,1.41,2.51,2.51,0,0,1,0,1.58,4.41,4.41,0,0,1-.53.88,2.79,2.79,0,0,1-1.41.88,2.38,2.38,0,0,1-1.58,0,4,4,0,0,1-.88-.53,2.8,2.8,0,0,1-.88-1.4,2.54,2.54,0,0,1,0-1.59,2.91,2.91,0,0,1,1.94-1.75,2.38,2.38,0,0,1,1.58,0,4,4,0,0,1,.88.52"/><path d="M348.46,151.72c.35.35.35.88.35,1.58a2.86,2.86,0,0,1-.52,1.59c-.18.35-.53.52-.71.7-.35.35-.88.35-1.58.35a1.94,1.94,0,0,1-1.4-.53c-.36-.17-.53-.52-.71-.7a1.59,1.59,0,0,1-.35-1.58,2,2,0,0,1,.53-1.41c.17-.35.53-.52.7-.7a2.15,2.15,0,0,1,1.58-.53,2.88,2.88,0,0,1,1.59.53,3.15,3.15,0,0,1,.52.7"/><path d="M354.79,156.12a2.43,2.43,0,0,1-.18,1.58,2.3,2.3,0,0,1-1.05,1.23c-.35.18-.53.35-.88.35a2.48,2.48,0,0,1-1.58-.17,2.36,2.36,0,0,1-1.23-1.06,2.42,2.42,0,0,1-.35-1.05,2.51,2.51,0,0,1,.17-1.59,2.44,2.44,0,0,1,1.06-1.23,3.07,3.07,0,0,1,.88-.35,2.5,2.5,0,0,1,1.58.18,2.34,2.34,0,0,1,1.23,1.05c.17.35.17.71.35,1.06"/><path d="M358.83,162.27a3.53,3.53,0,0,1-.7,1.41,2.17,2.17,0,0,1-1.41.7h-1.05a3.59,3.59,0,0,1-1.41-.7,2.2,2.2,0,0,1-.7-1.41c0-.35-.18-.7,0-1.06a3.62,3.62,0,0,1,.7-1.4,2.17,2.17,0,0,1,1.41-.7h1.05a2.47,2.47,0,0,1,2.11,2.1v1.06"/><path d="M360.06,169.3c-.35.35-.7.88-1.23,1a2.42,2.42,0,0,1-1.58.18,2.56,2.56,0,0,1-1.05-.35,3.51,3.51,0,0,1-1.06-1.23,2.49,2.49,0,0,1-.17-1.58,2.46,2.46,0,0,1,.35-1.06,2.3,2.3,0,0,1,1.23-1.05,2.49,2.49,0,0,1,1.58-.18,2.56,2.56,0,0,1,1.05.35,3.6,3.6,0,0,1,1.06,1.23,2.51,2.51,0,0,1,.17,1.59,1.48,1.48,0,0,1-.35,1.05"/><path d="M358.66,176.51a2,2,0,0,1-1.41.52,5,5,0,0,1-1.58-.35,1.33,1.33,0,0,1-.7-.7,2,2,0,0,1-.53-1.41,5.06,5.06,0,0,1,.35-1.58,1.37,1.37,0,0,1,.7-.7,2,2,0,0,1,1.41-.53,5.29,5.29,0,0,1,1.58.35,1.35,1.35,0,0,1,.7.71,1.94,1.94,0,0,1,.53,1.4,4.94,4.94,0,0,1-.35,1.58,1.39,1.39,0,0,1-.7.71"/><path d="M356.55,182.66a2.15,2.15,0,0,1-1.58.53,2.88,2.88,0,0,1-1.59-.53c-.35-.18-.52-.53-.7-.7a2.18,2.18,0,0,1-.53-1.59,2.87,2.87,0,0,1,.53-1.58c.18-.35.53-.53.7-.7a2.18,2.18,0,0,1,1.59-.53,2.87,2.87,0,0,1,1.58.53c.35.17.53.53.7.7a2.15,2.15,0,0,1,.53,1.58,2.88,2.88,0,0,1-.53,1.59l-.7.7"/></g></svg>