<svg id="Layer_1" data-name="Layer 1" xmlns="http://www.w3.org/2000/svg" viewBox="0 0 1000 800"><defs><style>.cls-1{fill:#005699;}.cls-1,.cls-2{fill-rule:evenodd;}.cls-2{fill:#ed1b2f;}</style></defs><g id="AAA"><path class="cls-1" d="M886.25,183.3c-22.84-38.91-142.92-13.53-292.56,54.94a157.13,157.13,0,0,1,21.13,19.47c115-49.07,203.77-64.37,222.4-32,21.13,36.43-62.59,126.84-197.05,216.48l1.7,1.7c164-106.56,269.76-216.48,244.38-260.45Z"/><path class="cls-1" d="M177.65,606.3c-12.67-22.84,14.37-66,68.5-117.41h0a69.74,69.74,0,0,1-12.67-4.05.85.85,0,0,1-.85-.85h0l-12.71-5.06c-65.1,60-98.06,110.77-82.84,137.65C155.67,647.88,236,637.72,343.56,598l-.85-1.7c-86.27,29.59-149.8,35.51-164.9,10.16Z"/><path class="cls-2" d="M110,343.14C110,251,231.78,175.72,381.26,175.72,532,175.68,653.85,251,653.85,343.14c0,93.12-121.78,168.26-272.31,168.26-149.8,0-271.26-75.23-271.26-168.26ZM263.85,212.93l51.58,175h0l54.17-197.9a302.51,302.51,0,0,0-105.71,22.83ZM367,285.81l-27.9,102.31h56.68L367.05,285.61Zm80.36,102.1,49-176.72a310.8,310.8,0,0,0-106.56-21.13Zm-184.33,0L235.1,285.61l-27.89,102.3Zm322.15,20.25a112.84,112.84,0,0,0,21.17-65c0-44.82-27.89-84.54-73.56-113.37L585.43,408.2ZM527.7,387.91,499,285.61,471,387.91Zm5.91,20.25H465.15l-5.92,22,16.2,52.43a220.73,220.73,0,0,0,69.11-33.76l-11-40.49ZM289.47,482.61,269.23,408.2H201.34l-5.92,21.13c23.65,23.69,55.8,42.31,93.85,54.13v-.85ZM402,408.2H333.24l-22,81.17A311.8,311.8,0,0,0,381.42,497a254.44,254.44,0,0,0,44-3.36L401.74,408.2Zm-176.08-175c-42.31,27.89-68.5,66.8-68.5,110a115.75,115.75,0,0,0,20.24,64.25L225.83,233.3Z"/></g></svg>