<svg id="Layer_1" data-name="Layer 1" xmlns="http://www.w3.org/2000/svg" viewBox="0 0 1000 800"><defs><style>.cls-1{fill:#ee3524;}</style></defs><g id="AMTB"><path d="M80.94,574.07a6.11,6.11,0,0,1-6.07,4.7A5.35,5.35,0,0,1,69,574c0-.12,0-.24,0-.36a26.74,26.74,0,0,1,1.69-6.2l31-82.61c1.55-4.38,4.09-7.62,8.84-7.62s7.33,3.24,8.83,7.62l31,82.56a26.82,26.82,0,0,1,1.69,6.21,5.41,5.41,0,0,1-5.57,5.24l-.35,0a6.07,6.07,0,0,1-6-4.7l-6.39-17.81H87.37Zm29.7-82.56h-.43L91.42,545.6h38.67Z"/><path d="M161.58,509.13a6.16,6.16,0,1,1,12.31,0h0v6.3h.28c2.82-5.74,9.68-12.88,16.83-12.88a6.25,6.25,0,0,1,6.83,5.61q0,.34,0,.69c0,3.47-2.49,5.73-7.71,6.72-7.28,1.27-16.26,6.72-16.26,21.19v35.48a6.16,6.16,0,0,1-12.31,0h0Z"/><path d="M236.16,502.55c12.64,0,20.06,4.32,20.06,9.4a5.26,5.26,0,0,1-5,5.17c-4.7,0-6.58-4-15-4-15.27,0-21.28,14.9-21.28,27.49s6,27.49,21.28,27.49c8.7,0,11-4.18,14.85-4.18a4.71,4.71,0,0,1,4.9,4.5,5.37,5.37,0,0,1,0,.9c0,4.7-6.87,9.69-19.65,9.69-22.7,0-33.65-18.38-33.65-38.16S213.6,502.55,236.16,502.55Z"/><path d="M275.87,545.45a21.24,21.24,0,0,0,19.72,22.67,21.46,21.46,0,0,0,2.27,0c16.4,0,20.63-10.1,25.24-10.1a4.69,4.69,0,0,1,4.76,4.63,4.25,4.25,0,0,1-.06.87c-.19,5.82-15.51,15.22-30.08,15.22-23.83,0-34.21-18.37-34.21-38.16S276.15,502.5,297,502.5s32.14,18.33,32.14,36.28c0,4.37-1.55,6.63-6.91,6.63Zm40.93-9.39c0-10.67-6.16-23-19.78-23-15.28-.57-20.73,11.65-21.15,23Z"/><path d="M353.27,572.24a6.2,6.2,0,1,1-12.36,1.08,6.49,6.49,0,0,1,0-1.08V476.33a6.2,6.2,0,0,1,12.36-1.08,6.49,6.49,0,0,1,0,1.08Z"/><path d="M399.13,502.55c21,0,32.9,18.33,32.9,38.11s-11.66,38.11-32.9,38.11-32.89-18.37-32.89-38.16S378.08,502.55,399.13,502.55Zm0,65.79c15.14,0,20.45-14.85,20.45-27.49S414.27,513,399.13,513s-20.49,14.9-20.49,27.49,5.31,27.68,20.49,27.68Z"/><path d="M445,509.13a6.2,6.2,0,1,1,12.36-1.08,6.49,6.49,0,0,1,0,1.08v6.3h.28c2.82-5.74,9.68-12.88,16.83-12.88a6.26,6.26,0,0,1,7,5.4c0,.3.05.6.05.9,0,3.47-2.49,5.73-7.71,6.72-7.28,1.27-16.26,6.72-16.26,21.19v35.48a6.2,6.2,0,0,1-12.36,1.08,6.49,6.49,0,0,1,0-1.08Z"/><path d="M504.45,573.51c-.57,4.32-3.39,5.31-6.63,5.31a5.53,5.53,0,0,1-5.73-6.3,35.78,35.78,0,0,1,.7-5.64l13.58-80.21c1.27-7,5.22-9.4,9.68-9.4a8.08,8.08,0,0,1,9,6.48l21.34,73.08h.28l21.29-73.08a8.12,8.12,0,0,1,9-6.48c4.7,0,8.41,2.39,9.68,9.4l13.63,80.21a35.79,35.79,0,0,1,.71,5.64,5.54,5.54,0,0,1-4.79,6.21,4.69,4.69,0,0,1-1,0,5.68,5.68,0,0,1-6.52-4.71q0-.3-.06-.6l-11.66-80.22h-.28L552.8,573.75a6.44,6.44,0,0,1-12.59,0l-23.87-80.51h-.29Z"/><path d="M620.66,477.27a7.61,7.61,0,1,1-7.61,7.61v-.09a7.56,7.56,0,0,1,7.61-7.52Zm6.21,95a6.2,6.2,0,0,1-12.36,1.08,6.49,6.49,0,0,1,0-1.08V509.13a6.2,6.2,0,1,1,12.36-1.08,6.49,6.49,0,0,1,0,1.08Z"/><path d="M648.44,487.23a6.2,6.2,0,1,1,12.36-1.08,6.49,6.49,0,0,1,0,1.08v16.35h5c4.09,0,6.21,1.93,6.21,5.31s-2.12,5.31-6.21,5.31h-5v58a6.2,6.2,0,0,1-12.36,1.08,6.49,6.49,0,0,1,0-1.08V514h-5c-4.09,0-6.21-1.93-6.21-5.31s2.12-5.31,6.21-5.31h5Z"/><path d="M688.24,487.23a6.16,6.16,0,1,1,12.31,0v16.37h5.08c4,0,6.15,1.93,6.15,5.31s-2.11,5.31-6.15,5.31h-5.08v58a6.16,6.16,0,1,1-12.31,0V514h-4.7c-4,0-6.16-1.93-6.16-5.31s1.93-5.13,6.16-5.13h4.7Z"/><path d="M783.36,572.81a5.73,5.73,0,0,1-5.5,6h-.33a5.69,5.69,0,0,1-5.79-5.58c0-.14,0-.29,0-.43v-5.17h-.28a24.12,24.12,0,0,1-20.21,11.18c-21,0-32.9-18.37-32.9-38.16s11.8-38.11,32.9-38.11a26,26,0,0,1,20.3,9.92h.28v-3.9a5.64,5.64,0,0,1,5.3-6h.39a5.68,5.68,0,0,1,5.74,5.63c0,.13,0,.26,0,.38Zm-32.1-4.7c15.13,0,20.44-14.85,20.44-27.5S766.39,513,751.26,513s-20.49,14.9-20.49,27.49,5.31,27.68,20.49,27.68Z"/><path d="M812.68,572.24a6.2,6.2,0,0,1-12.36,1.08,6.49,6.49,0,0,1,0-1.08V476.33a6.2,6.2,0,1,1,12.36-1.08,6.49,6.49,0,0,1,0,1.08Z"/><path class="cls-1" d="M924.48,340.7a481.6,481.6,0,0,0-43.89-34.49c-11-7.8-53.25-34.45-76.74-47A428.19,428.19,0,0,0,724,226.32a181.73,181.73,0,0,0-59.55-4.7c-15.64,1.6-33.17,9.87-37.59,29.79-3.1,14.1,6.3,37.6,6.3,37.6s6.25-1.6,17.2-3.15c11.89-1.69,10.62-.24,17.24-1.55l-4.7-21.95c1.55-9.4,17.25-14.1,61.1-1.55,35.81,10.2,119,50.1,119,50.1s-64.19-28.2-136.28-25.05c-47.89,2.07-70.49,3.9-126.88,25.05-50.15,18.8-104.94,59.54-114.34,68.94-12.5,12.55-8.65,18.14-3.15,25,6.3,7.84,19.22,5.31,31.35-3.11C514,387.7,553.23,357.9,584.52,345.4A344.57,344.57,0,0,1,655,325c7.7,11.79,48.82,70.77,56.39,78.33,4.7,4.7,14.1,12.55,23.5,6.25s11-12.5,0-29.74c-6.82-10.76-28.72-43.85-39.15-59.54h0c18.8,0,50.38-.8,75.19,3.14a343.42,343.42,0,0,1,86.14,25.05c17.25,7.85,32.33,15.28,47,21.95C921.33,378.3,941.68,356.35,924.48,340.7Z"/></g></svg>