<svg id="Layer_1" data-name="Layer 1" xmlns="http://www.w3.org/2000/svg" viewBox="0 0 1000 800"><defs><style>.cls-1{fill:#f17140;}.cls-2{fill:#471149;}</style></defs><g id="Great_Heights" data-name="Great Heights"><path class="cls-1" d="M153.18,417.42l-.69.08c-1.38.17-2.76.41-4.13.61,1.37-.2,2.75-.44,4.13-.61l.69-.08.94-.13h0Z"/><path class="cls-1" d="M149.23,407.68l-.35,1Z"/><path class="cls-1" d="M245.56,398.82l-2.6.89Z"/><path class="cls-1" d="M239.07,401.11l-2.6,1.08Z"/><path class="cls-1" d="M211,417.18l-1.55,1.2Z"/><path class="cls-1" d="M174.37,416.78c-1.28,0-2.56-.08-3.82-.1C171.81,416.7,173.09,416.71,174.37,416.78Z"/><path class="cls-1" d="M164.58,416.68c-1.28,0-2.55,0-3.83.1C162.08,416.71,163.3,416.7,164.58,416.68Z"/><path class="cls-1" d="M181.11,417.3l.83.12h0Z"/><path class="cls-1" d="M167.52,359.43h0a17.16,17.16,0,0,0,17.36-16.95v0a17.14,17.14,0,0,0-17.3-17h0a17,17,0,1,0-.06,33.95Z"/><path class="cls-1" d="M105.07,350.58l.11-.18a.71.71,0,0,1-.12.18Z"/><path class="cls-2" d="M72.44,398.1a11.78,11.78,0,0,0-.22-16.65l-.29-.27a12.38,12.38,0,0,0-17.25.51,11.76,11.76,0,0,0,.22,16.64l.28.27A12.38,12.38,0,0,0,72.44,398.1Z"/><path class="cls-1" d="M105.18,350.4a.71.71,0,0,1-.12.18h0A.71.71,0,0,0,105.18,350.4Z"/><path class="cls-1" d="M105.48,349.92h0l-.3.48Z"/><polygon class="cls-1" points="105.46 349.93 105.48 349.91 105.48 349.93 105.46 349.93"/><path class="cls-1" d="M105.48,349.92l-.3.48-.11.18A2.81,2.81,0,0,1,105.48,349.92Z"/><path class="cls-1" d="M105.48,349.92l-.3.48Z"/><path class="cls-2" d="M279.92,398.6a11.76,11.76,0,0,0,.79-16.62l-.27-.29a12.39,12.39,0,0,0-17.26-.51,11.78,11.78,0,0,0-.77,16.63l.27.29A12.34,12.34,0,0,0,279.92,398.6Z"/><path class="cls-1" d="M253.15,395.44Z"/><path class="cls-1" d="M229.94,350.4v0l-.3-.48h0Z"/><path class="cls-1" d="M229.52,349.84a4.86,4.86,0,0,1,.52.81c-.17-.24-.3-.52-.47-.74Z"/><path class="cls-1" d="M243,399.71c-1.32.46-2.61.91-3.89,1.4C240.35,400.62,241.64,400.17,243,399.71Z"/><path class="cls-1" d="M229.94,350.4l-.3-.48a3.75,3.75,0,0,1,.4.66v-.08Z"/><path class="cls-1" d="M229.64,349.92h0l.3.48Z"/><polygon class="cls-1" points="229.64 349.91 229.64 349.93 229.62 349.91 229.62 349.91 229.64 349.91"/><path class="cls-1" d="M145.26,418.56c1.25-3.14,2.44-6.5,3.62-9.87-1.18,3.37-2.37,6.73-3.62,9.86Z"/><path class="cls-1" d="M220.05,359.31c-.14-.69-.24-1.38-.31-2.07a15.69,15.69,0,0,1,.28-5.16,9.91,9.91,0,0,1,1-2.53,25.48,25.48,0,0,0-3.92,2.36c-15.27,11.08-32.74,14.49-42.44,15.55-3.36.37-5.85.46-6.91.47h-.4c-1.06,0-3.5-.1-6.91-.47-9.71-1.06-27.18-4.47-42.44-15.55a26.47,26.47,0,0,0-3.92-2.36c1.68,2.83,2.12,7.84-.37,14.33h0a72.94,72.94,0,0,0,19.22,5.74,119.74,119.74,0,0,0,22.56,0,3.36,3.36,0,0,1,3.57,3.14,3.64,3.64,0,0,1,0,.74c0,.25-12.56,41.85-13.8,45.06h0c1-.17,2.05-.28,3.09-.45,1.38-.2,2.76-.44,4.14-.61l.69-.08.94-.13h0c2.19-.22,4.37-.41,6.57-.51,1.28,0,2.56-.08,3.84-.1h6c1.26,0,2.54,0,3.81.1,2.22.1,4.43.29,6.63.51H181l.82.11h0l.69.09c2.41.28,4.83.65,7.23,1.06A340.48,340.48,0,0,1,176,373.38c-.12-.49-.22-1-.34-1.44a2.08,2.08,0,0,1,1.73-2.39,2,2,0,0,1,.54,0,162.13,162.13,0,0,0,25.51-.27,74.46,74.46,0,0,0,18-5.29A29.2,29.2,0,0,1,220.05,359.31Z"/><path class="cls-1" d="M219.74,357.24a15.69,15.69,0,0,1,.28-5.16A15.69,15.69,0,0,0,219.74,357.24Z"/><path class="cls-1" d="M221.4,363.88h0a27.88,27.88,0,0,1-1.35-4.57A27.88,27.88,0,0,0,221.4,363.88Z"/><path class="cls-1" d="M130.13,422.14a135.16,135.16,0,0,1,15.13-3.58h0A135.16,135.16,0,0,0,130.13,422.14Z"/><path class="cls-1" d="M160.75,416.78c-2.2.1-4.39.29-6.58.51C156.36,417.1,158.55,416.88,160.75,416.78Z"/><path class="cls-1" d="M174.37,416.78c2.22.12,4.42.29,6.62.51h0C178.79,417.1,176.59,416.88,174.37,416.78Z"/><path class="cls-1" d="M145.26,418.56h0c1-.17,2.05-.28,3.1-.45C147.31,418.28,146.29,418.39,145.26,418.56Z"/><path class="cls-2" d="M295.32,422.67c-12.56-3.37-24.67-11.93-32.66-18.5a113.3,113.3,0,0,1-8.4-7.63c-.68-.66-1-1.05-1-1.05h0c-6.59-7.26-16.81-20.68-20.76-38.67a19.72,19.72,0,0,0-2.32-6.22h0a3.18,3.18,0,0,0-.41-.66h0v-.08h0c-2.8-3.85-6.5-3.53-8.4-.22a9.3,9.3,0,0,0-1,2.52,15.71,15.71,0,0,0-.29,5.16,20.26,20.26,0,0,0,.32,2.07,28.28,28.28,0,0,0,1.35,4.58h0c1.53,4.17,5.61,10.27,11.16,16.12,3.16,3.36,14.34,13.33,14.65,13.57a2.84,2.84,0,0,1,.66,4,2.76,2.76,0,0,1-1.52,1.08,2.71,2.71,0,0,0-.79.26,172.74,172.74,0,0,0-18.5,7.85c-7.7,3.56-20.9,14-22.33,15.33h0a134.12,134.12,0,0,0-15-3.53h-.18c-2.41-.4-4.83-.77-7.23-1.06l-.69-.08h0l-.83-.12H181c-2.21-.22-4.41-.38-6.63-.5-1.28,0-2.55-.09-3.81-.1s-2,0-3,0h-3c-1.28,0-2.56,0-3.84.1-2.2.1-4.39.28-6.57.5h0l-.94.14-.69.08c-1.38.17-2.76.4-4.14.61-1,.16-2.07.28-3.09.45a134.23,134.23,0,0,0-15.22,3.51h0A155.94,155.94,0,0,0,86,397.76a1.43,1.43,0,0,1-.43-2.52,153.26,153.26,0,0,0,17.32-14.88,61.29,61.29,0,0,0,10.81-16.5c2.49-6.49,2-11.5.37-14.32-2-3.36-5.69-3.63-8.51.22h0v.08h0a2.48,2.48,0,0,0-.4.66h0a20.1,20.1,0,0,0-2.34,6.22c-3.85,18-14.16,31.37-20.77,38.67h0s-.35.39-1,1c-1.48,1.47-4.46,4.31-8.41,7.64-8,6.62-20.1,15.13-32.66,18.5-19.84,5.31,7.17,21.74,34.24-14.89a1.34,1.34,0,0,1,1.86-.29,1.29,1.29,0,0,1,.17.16A69.73,69.73,0,0,1,92.92,439.5a131,131,0,0,0-24.08,19.64,9.08,9.08,0,0,0-.49,11.23,6.61,6.61,0,0,0,5.28,2.81,6.41,6.41,0,0,0,4.79-2.27,135.52,135.52,0,0,1,59.16-34.07,114.83,114.83,0,0,1,60,0,135.68,135.68,0,0,1,59.15,34.07,6.45,6.45,0,0,0,4.8,2.2,6.74,6.74,0,0,0,5.28-2.81,9.1,9.1,0,0,0-.44-11.16,132.18,132.18,0,0,0-23.91-19.51,70.78,70.78,0,0,1,15-30.06,3.36,3.36,0,0,1,4.75-.3,3.11,3.11,0,0,1,.4.41C289.08,443.84,314.81,427.88,295.32,422.67Zm-65.8-72.83h0c.17.22.3.51.47.74A4.41,4.41,0,0,0,229.52,349.84Z"/><path class="cls-1" d="M342.82,468.34h-12c-.82,2-1.68,4-2.33,5.9h-1.68a208.94,208.94,0,0,1,9.9-21.37h.2a212.76,212.76,0,0,1,9.92,21.4h-1.68C344.47,472.3,343.68,470.34,342.82,468.34Zm-11.4-1.28H342.3c-1.68-4.06-3.65-8.11-5.43-11.67C335.07,459,333.13,463,331.42,467.06Z"/><path class="cls-1" d="M373.47,459.73a6.31,6.31,0,0,1-6,6.59h-6.66v7.95h-1.57V453.15h7.5a6.34,6.34,0,0,1,6.75,5.9A5.15,5.15,0,0,1,373.47,459.73Zm-1.68,0a5,5,0,0,0-4.69-5.37,4.82,4.82,0,0,0-.76,0h-5.66V465h5.66a5,5,0,0,0,5.47-4.58c0-.2,0-.4,0-.6Z"/><path class="cls-1" d="M401,459.73a6.32,6.32,0,0,1-6,6.6,6.91,6.91,0,0,1-.79,0h-6v7.95h-1.56V453.15h7.41a6.36,6.36,0,0,1,6.89,5.77A5.48,5.48,0,0,1,401,459.73Zm-1.68,0a5,5,0,0,0-4.7-5.37,4.45,4.45,0,0,0-.73,0h-5.67V465h5.67a5,5,0,0,0,5.43-4.62,5.24,5.24,0,0,0,0-.56Z"/><path class="cls-1" d="M426.15,473v1.31H414.3V453.15h1.56V473Z"/><path class="cls-1" d="M440.21,474.27h-1.56V453.15h1.56Z"/><path class="cls-1" d="M468.43,473v1.31h-13V453.15h12.68v1.28H456.93v8.41h10.51v1.34H456.93V473Z"/><path class="cls-1" d="M499.53,463.74a9.82,9.82,0,0,1-10.32,10.53h-6.86V453.15h6.86C495.4,453.15,499.53,457.46,499.53,463.74Zm-1.68,0c0-5.58-3.56-9.31-8.94-9.31h-5.05v18.5h5.05a8.58,8.58,0,0,0,9-8.11,7.79,7.79,0,0,0,0-1.08Z"/><path class="cls-1" d="M545.12,468.45c0,3.48-2.66,5.79-6.63,5.79h-8.27V453.15h7.64c3.8,0,6.3,2.1,6.3,5.3a4.89,4.89,0,0,1-3.75,4.79A5.25,5.25,0,0,1,545.12,468.45Zm-13.33-5.65h5.66c3.08,0,5-1.68,5-4.18s-2.09-4.19-5.2-4.19h-5.51Zm11.68,5.69c0-2.69-2.12-4.49-5.29-4.49h-6.39v9h6.39C541.35,473,543.47,471.16,543.47,468.49Z"/><path class="cls-1" d="M571.86,473v1.31h-13V453.15h12.73v1.28H560.47v8.41H571v1.34H560.47V473Z"/><path class="cls-1" d="M602.83,453.15v21.12h-1.57V464.18H587.34v10.09h-1.53V453.15h1.57v9.74H601.3v-9.74Z"/><path class="cls-1" d="M631.11,468.34h-12c-.85,2-1.69,4-2.36,5.9h-1.68A208.87,208.87,0,0,1,625,452.87h.23a216,216,0,0,1,9.92,21.4h-1.68Q632.4,471.35,631.11,468.34Zm-11.42-1.28h10.9c-1.68-4.06-3.65-8.11-5.45-11.67C623.34,459,621.41,463,619.69,467.06Z"/><path class="cls-1" d="M653.51,474.52h-.24a210.89,210.89,0,0,1-9.6-21.37h1.68a185.65,185.65,0,0,0,8.06,18.75q4.5-9.16,8.07-18.75h1.68A215.79,215.79,0,0,1,653.51,474.52Z"/><path class="cls-1" d="M677.12,474.27h-1.57V453.15h1.57Z"/><path class="cls-1" d="M690.87,463.69c0-6.5,4.22-10.82,10.53-10.82s10.52,4.32,10.52,10.82-4.22,10.83-10.51,10.83S690.87,470.18,690.87,463.69Zm19.42,0c0-5.73-3.56-9.55-8.86-9.55s-8.91,3.82-8.91,9.55,3.56,9.56,8.91,9.56,8.81-3.82,8.81-9.56Z"/><path class="cls-1" d="M741.69,474.27h-2A129.9,129.9,0,0,0,729,464.92a24.32,24.32,0,0,0,4.09.29,5.38,5.38,0,0,0,.6-10.75h-6.51v19.81h-1.56V453.15h7.7a6.56,6.56,0,1,1,.81,13.09,4.56,4.56,0,0,1-.64,0h-.79A100,100,0,0,1,741.69,474.27Z"/><path class="cls-1" d="M783.61,468.34h-12c-.84,2-1.68,4-2.35,5.9h-1.69a211,211,0,0,1,9.89-21.37h.24a214.46,214.46,0,0,1,9.85,21.4h-1.68Q784.91,471.35,783.61,468.34Zm-11.42-1.28h10.89c-1.68-4.06-3.65-8.11-5.44-11.67C775.82,459,773.9,463,772.19,467.06Z"/><path class="cls-1" d="M817.86,453.15v21.37c-1.68,0-12.51-14.47-16.4-18.66v18.38H799.9V452.87c1.68,0,12.53,14.52,16.38,18.69V453.07Z"/><path class="cls-1" d="M846.11,468.34h-12c-.84,2-1.68,4-2.34,5.9h-1.68A204.83,204.83,0,0,1,840,452.87h.21a212.68,212.68,0,0,1,9.91,21.4h-1.68C847.75,472.3,847,470.34,846.11,468.34Zm-11.44-1.28h10.88c-1.68-4.06-3.65-8.11-5.43-11.67C838.35,459,836.35,463,834.67,467.06Z"/><path class="cls-1" d="M874.32,473v1.31H862.43V453.15H864V473Z"/><path class="cls-1" d="M890.88,465.26v9h-1.56v-9a128.89,128.89,0,0,1-8.05-12.14H883A124.93,124.93,0,0,0,890.16,464c2.52-3.48,4.78-6.89,7.13-10.88H899A136.41,136.41,0,0,1,890.88,465.26Z"/><path class="cls-1" d="M916.69,464l-1.36-.31c-3-.69-5.5-1.68-5.5-5.16s2.58-5.66,6.93-5.66a16.84,16.84,0,0,1,6.31,1.27v1.2a17.45,17.45,0,0,0-6-1.25c-3.59,0-5.61,1.52-5.61,4.19s2.2,3.26,4.74,3.88l1.4.34c3.58.89,6.34,2.14,6.34,6.19,0,3.63-2.59,5.82-6.9,5.82a14.07,14.07,0,0,1-6.46-1.48v-1.2a14.38,14.38,0,0,0,6,1.42c3.67,0,5.82-1.69,5.82-4.41S920.06,464.77,916.69,464Z"/><path class="cls-1" d="M939.13,474.27h-1.57V453.15h1.57Z"/><path class="cls-1" d="M959.64,464l-1.36-.31c-3-.69-5.5-1.68-5.5-5.16s2.57-5.66,6.93-5.66a16.83,16.83,0,0,1,6.3,1.27v1.2a17.48,17.48,0,0,0-6-1.23c-3.6,0-5.61,1.51-5.61,4.19s2.2,3.26,4.74,3.88l1.39.34c3.59.89,6.34,2.13,6.34,6.19,0,3.63-2.57,5.81-6.89,5.81A13.79,13.79,0,0,1,953.5,473v-1.19a14.22,14.22,0,0,0,6,1.41c3.67,0,5.82-1.68,5.82-4.4S963,464.77,959.64,464Z"/><path class="cls-2" d="M382.6,407.13a24.94,24.94,0,0,1-12.74-3,46.39,46.39,0,0,1-17.44,3.53c-21.25,0-34.87-14.88-34.87-36.81,0-22.92,14.9-37.6,37-37.6a67.61,67.61,0,0,1,23.62,4.41v11A56.75,56.75,0,0,0,359,345c-16.81,0-26.75,10-26.75,25.86,0,14.88,8.41,25.05,23.54,25.05a40.23,40.23,0,0,0,12.54-2.15V376.48H352.81V364.71H382.5Z"/><path class="cls-2" d="M429.43,365.71a54.19,54.19,0,0,0-17.15,2.36v38.57H398.49V353.2A23.76,23.76,0,0,1,411,356.35a42.88,42.88,0,0,1,18.39-3.57Z"/><path class="cls-2" d="M487.07,385.15H450.72c1,7.74,4.61,11.77,15.13,11.77A66.64,66.64,0,0,0,483.8,394v10.09a61.53,61.53,0,0,1-21.07,3.63c-15.79,0-26.27-9.5-26.27-27,0-16.65,10.29-27.82,25.58-27.82s25.47,10.68,25.47,26.64A46.25,46.25,0,0,1,487.07,385.15Zm-36.45-8.86h22.94c-.9-8-4.71-13.13-11.47-13.13S451.41,368.34,450.62,376.29Z"/><path class="cls-2" d="M543.52,407.13a26.25,26.25,0,0,1-11.95-2.84,41.34,41.34,0,0,1-16.26,3.36c-12.16,0-19.51-6.07-19.51-16.44s7.94-16.47,21.56-16.47a41.74,41.74,0,0,1,12.44,2.07v-3.18c0-6.35-4.3-10.09-11.85-10.09a72.1,72.1,0,0,0-17.89,2.56v-10a61.62,61.62,0,0,1,20.68-3.36c14.31,0,22.73,7.25,22.73,19.59Zm-22.73-9.3a24.58,24.58,0,0,0,9-1.68V385.49a22.35,22.35,0,0,0-9-1.87c-6.73,0-10.78,2.66-10.78,7.25s4.12,7,10.78,7Z"/><path class="cls-2" d="M590.55,396.35v10.09a63.74,63.74,0,0,1-11.77,1.18c-10.88,0-18.12-7.05-18.12-17.73V363.56H553v-9.8h7.65V342.21l13.72-3.92v15.47h15.68v9.8H574.39v24.18a8.38,8.38,0,0,0,8.82,9.18A60.15,60.15,0,0,0,590.55,396.35Z"/><path class="cls-2" d="M671.57,334.19v72.45h-8.91V373.38h-43v33.26h-8.91V334.19h8.91v31.94h42.93V334.19Z"/><path class="cls-2" d="M732.94,383.72H694.15c.87,10.78,6.36,17.14,17.82,17.14a58.3,58.3,0,0,0,17.64-3.23v6.46a55,55,0,0,1-19.37,3.53c-15,0-24.88-10.09-24.88-27,0-16.16,9.6-26.91,24-26.91s23.81,10.56,23.81,26.23C733.14,381.08,733,382.75,732.94,383.72Zm-38.89-5.58h30.47c-.59-10.86-6.07-18-15.14-18S694.64,367.28,694.05,378.14Z"/><path class="cls-2" d="M743.74,338.49a5.18,5.18,0,0,1,5-5.38h.38a5.38,5.38,0,0,1,0,10.76,5.18,5.18,0,0,1-5.38-5A2.41,2.41,0,0,1,743.74,338.49Zm9.7,16.16v52H745v-52Z"/><path class="cls-2" d="M816.34,414.46c0,9.5-6.37,14.7-26.06,14.7a51.72,51.72,0,0,1-19.89-3.37V420a56.81,56.81,0,0,0,20.28,3c12.24,0,17.43-2.26,17.43-7.35,0-14.68-40.17.69-40.17-20.18a17.17,17.17,0,0,1,7-13.12,16,16,0,0,1-4.11-11,16.55,16.55,0,0,1,12.74-16.55l26.9-7.73,1.69,6.07-10.48,2.43c7,2.85,11.45,8.63,11.45,16.16,0,10.38-8.52,17.24-21.15,17.24a25.82,25.82,0,0,1-13.45-3.36,10.31,10.31,0,0,0-3.13,7.24C775.48,407.72,816.34,391.76,816.34,414.46ZM779.18,371.3c0,7.14,5.05,11.94,12.85,11.94,7.53,0,12.63-4.71,12.63-11.78s-5-12-12.83-12S779.18,364.15,779.18,371.3Z"/><path class="cls-2" d="M876.61,373.25v33.39H868.2V374.12c0-8.89-5.48-13.7-15-13.7a54.28,54.28,0,0,0-16.07,2.87v43.39h-8.41V331.93l8.41-2.35v27a73.23,73.23,0,0,1,19.4-2.9C869.16,353.67,876.61,360.32,876.61,373.25Z"/><path class="cls-2" d="M920.71,400.17v6.27a38.76,38.76,0,0,1-10,1.18c-9.3,0-15.47-6.38-15.47-16V360.82h-7.55v-6.17h7.52V341.82l8.4-2.35V354.6h16.57v6.17H903.61v29.51c0,6.37,3.82,10.58,9.6,10.58A37,37,0,0,0,920.71,400.17Z"/><path class="cls-2" d="M948.74,384.31l-4.6-1.07c-8.41-1.87-13.46-5.28-13.46-14.1,0-9.8,6.73-15.47,17.85-15.47a42.1,42.1,0,0,1,15.62,3.13V363a42.56,42.56,0,0,0-14-2.84c-7.15,0-10.88,2.94-10.88,7.74,0,4.3,3.36,6.35,8.83,7.73l4.61,1.08c8.12,1.85,14,6,14,15.27,0,9.88-6.72,15.67-17.92,15.67a37.64,37.64,0,0,1-16.46-3.72v-6.07A37.48,37.48,0,0,0,947,401.19c7.15,0,10.88-2.94,10.88-8.4C958,388.51,954.43,385.69,948.74,384.31Z"/></g></svg>