<svg id="Layer_1" data-name="Layer 1" xmlns="http://www.w3.org/2000/svg" viewBox="0 0 1000 800"><path id="PSA_Groupe" data-name="PSA Groupe" d="M296.78,488.9H707.84v5.69H296.78V488.9ZM343,559.3q0,9.6-6.4,14.94c-4.27,4.26-10,5.69-17.78,5.69a24,24,0,0,1-16.36-5.69c-5.69-4.27-7.82-8.54-7.82-14.94,0-5.69,2.13-10.67,7.82-14.93,4.27-3.56,10-5.69,17.07-5.69,8.54,0,14.94,2.84,20.63,9.24l-5.69,2.85q-5.34-6.4-14.94-6.4c-5,0-8.53.71-12.09,3.55s-5.69,6.4-5.69,10.67,2.14,7.82,5,10.67c3.56,2.13,7.82,4.27,13.51,4.27,8.54,0,13.52-3.56,16.36-10H318.83v-5.69L343,559.3Zm74,19.2h-7.11l-10-14.22H380.7V578.5h-6.4V540.81h29.87c3.56,0,7.11.71,9.25,2.85a13.12,13.12,0,0,1,3.55,8.53,12.77,12.77,0,0,1-2.13,7.82c-2.13,2.14-4.27,2.85-7.11,3.56L417,578.5Zm-14.22-19.91c5,0,7.11-2.13,7.11-5.69,0-4.27-2.13-6.4-7.82-6.4H380v12.09ZM493.07,560c0,6.4-2.14,11.38-7.83,14.94a26.35,26.35,0,0,1-32.71,0c-5-4.27-7.82-8.54-7.82-14.94,0-5.69,2.84-10.66,7.82-14.93,5-3.56,10-5.69,16.36-5.69,7.11,0,12.09,2.13,16.35,5.69A17.6,17.6,0,0,1,493.07,560Zm-6.4,0c0-4.26-2.14-7.82-5.69-10.66a22,22,0,0,0-12.09-3.56,19.81,19.81,0,0,0-12.8,4.27,12.4,12.4,0,0,0-5,10,12.78,12.78,0,0,0,5,10.67,21.06,21.06,0,0,0,12.8,4.27c5.69,0,9.95-1.42,13.51-4.27,2.13-2.84,4.27-6.4,4.27-10.67Zm76.8,6.4c0,4.27-2.13,7.12-5.69,10a31.45,31.45,0,0,1-15.64,4.27c-6.4,0-11.38-1.42-15.65-4.27a11.36,11.36,0,0,1-5.69-10v-25.6h6.4V565c0,2.85.71,5.69,3.56,7.11,2.13,1.43,6.4,2.14,11.38,2.14s8.53-.71,11.38-2.14a8.74,8.74,0,0,0,3.55-7.11V540.81h6.4v25.6Zm61.88-25.6c3.55,0,7.11.71,9.24,2.85a11.77,11.77,0,0,1,3.56,8.53c0,4.27-.71,6.4-3.56,8.53-2.13,2.14-5.69,2.85-10,2.85H601.88v14.22h-5.69V540.1h29.16Zm-.72,17.78c5,0,7.12-2.13,7.12-5.69,0-4.27-2.14-6.4-7.83-6.4H601.17v12.09Zm83.21,19.91H668V540.81h37.69v5.69h-32v10h27v5.69h-27v11.38h33.42v5Zm7.82-350.6c-.71-2.14-2.84-2.85-5-2.85H672.28c-2.13,0-3.55.71-5,2.85L599.74,356.62c-.71-11.38-7.82-22.76-17.06-29.16-14.94-10.67-41.25-17.78-71.12-20.62-17.07-1.43-67.56-4.27-83.21-9.25-11.38-4.27-17.78-10.67-17.78-19.91,0-25.6,47.65-27.74,64-27.74,34.84,0,62.58,7.11,85.34,19.2A5.06,5.06,0,0,0,567,267l9.24-17.78a6.76,6.76,0,0,0-2.13-8.53c-27.73-14.94-59-21.34-96-21.34-27.73,0-54.76,4.27-76.8,17.07-4.27,2.13-7.83,5.69-11.38,8.53-10-13.51-30.58-19.91-51.21-19.91H186.55c-3.55,0-5.69,2.14-5.69,5V424.18c0,3.56,2.14,5.69,5.69,5.69h22.76a5.6,5.6,0,0,0,5.69-5.69V260.61a5.61,5.61,0,0,1,5.69-5.69H330.21c27,0,41.25,11.38,41.25,34.14,0,21.33-13.51,32-39.83,32H252l-16.36,30.58h95.3c24.18,0,42.67-5.69,55.47-16.36a63.58,63.58,0,0,0,10.67-13.51c13.51,6.4,37,11.38,70.41,13.51,37.69,2.14,61.16,5,70.4,7.12,16.36,4.26,24.89,12.8,24.89,25.6,0,31.29-49.07,36.27-74,36.27-34.85,0-69-7.11-97.43-26.32-2.84-2.13-5.69-1.42-7.11.71l-10,19.21c-2.13,3.55-.71,5.69,1.42,7.11,35.56,22.76,76.81,28.45,115.21,28.45,25.61,0,62.59-7.12,75.39-15.65l-2.85,5.69c-.71,2.13,0,5.69,3.56,5.69h27c2.14,0,3.56-1.42,5-2.85l86.76-163.57c.72-2.13,2.14-2.84,4.27-2.84h2.85c2.13,0,3.55.71,4.26,2.84L742,347.37c2.13,4.27.71,6.4-3.56,6.4H665.17l-16.36,30.58H757.62c2.14,0,3.56.72,5,2.85L783.23,427a6,6,0,0,0,5,2.85h27c4.27,0,4.27-4.27,3.55-6.4L715.66,227.9Z"/></svg>