<svg id="Layer_1" data-name="Layer 1" xmlns="http://www.w3.org/2000/svg" viewBox="0 0 1000 800"><defs><style>.cls-1{fill:#ff5f00;}.cls-2{fill:#eb001b;}.cls-3{fill:#f79e1b;}</style></defs><g id="Mastercard"><g id="g13"><g id="g15"><path d="M282.78,663.83V628.65c0-13.48-8.21-22.28-22.28-22.28-7,0-14.65,2.35-19.93,10-4.1-6.45-10-10-18.76-10-5.86,0-11.73,1.76-16.42,8.21v-7H193.08v56.29h12.31V632.75c0-10,5.28-14.65,13.49-14.65s12.31,5.27,12.31,14.65v31.08H243.5V632.75c0-10,5.86-14.65,13.49-14.65,8.2,0,12.31,5.27,12.31,14.65v31.08Zm182.34-56.29H445.18v-17H432.87v17H421.73v11.14h11.14v25.8c0,12.9,5.28,20.52,19.35,20.52a32.85,32.85,0,0,0,15.24-4.1l-3.52-10.56a19.22,19.22,0,0,1-10.55,2.93c-5.86,0-8.21-3.51-8.21-9.38V618.68h19.94Zm104.35-1.17a16.52,16.52,0,0,0-14.65,8.21v-7H542.51v56.29h12.31V632.17c0-9.38,4.1-14.66,11.72-14.66a34.57,34.57,0,0,1,7.62,1.17L577.68,607a38.44,38.44,0,0,0-8.21-.59Zm-157.71,5.86c-5.86-4.1-14.07-5.86-22.86-5.86-14.07,0-23.45,7-23.45,18.18,0,9.38,7,14.65,19.35,16.41l5.86.59c6.45,1.17,10,2.93,10,5.86,0,4.11-4.69,7-12.89,7A32.28,32.28,0,0,1,369,648.58L363.1,658c6.45,4.69,15.25,7,24,7,16.42,0,25.8-7.62,25.8-18.17,0-10-7.62-15.25-19.35-17l-5.86-.58c-5.28-.59-9.38-1.76-9.38-5.28,0-4.1,4.1-6.45,10.55-6.45,7,0,14.07,2.93,17.59,4.69l5.27-10Zm327.15-5.86a16.53,16.53,0,0,0-14.66,8.21v-7H711.94v56.29h12.31V632.17c0-9.38,4.11-14.66,11.73-14.66a34.66,34.66,0,0,1,7.62,1.17L747.12,607a38.49,38.49,0,0,0-8.21-.59ZM581.79,635.69c0,17,11.72,29.31,29.9,29.31,8.2,0,14.07-1.76,19.93-6.45l-5.86-10c-4.69,3.52-9.38,5.28-14.66,5.28-10,0-17-7-17-18.17,0-10.56,7-17.59,17-18.18,5.28,0,10,1.76,14.66,5.28l5.86-10c-5.86-4.69-11.73-6.45-19.93-6.45-18.18,0-29.9,12.31-29.9,29.32Zm113.74,0V607.54H683.21v7c-4.1-5.28-10-8.21-17.59-8.21-15.82,0-28.14,12.31-28.14,29.32S649.8,665,665.62,665c8.21,0,14.08-2.93,17.59-8.21v7h12.32V635.69Zm-45.15,0c0-10,6.45-18.18,17-18.18,10,0,17,7.62,17,18.18,0,10-7,18.17-17,18.17-10.55-.59-17-8.21-17-18.17ZM503.22,606.37c-16.41,0-28.14,11.73-28.14,29.32S486.81,665,503.81,665c8.21,0,16.42-2.35,22.87-7.62l-5.87-8.8a28,28,0,0,1-16.41,5.87c-7.62,0-15.25-3.52-17-13.49H529v-4.69c.59-18.17-10-29.9-25.8-29.9Zm0,10.55c7.63,0,12.9,4.69,14.08,13.49H488c1.17-7.62,6.45-13.49,15.24-13.49Zm305.46,18.77V585.27H796.37v29.31c-4.11-5.28-10-8.21-17.59-8.21-15.83,0-28.14,12.31-28.14,29.32S763,665,778.78,665c8.21,0,14.07-2.93,17.59-8.21v7h12.31V635.69Zm-45.15,0c0-10,6.45-18.18,17-18.18,10,0,17,7.62,17,18.18,0,10-7,18.17-17,18.17-10.56-.59-17-8.21-17-18.17Zm-411.57,0V607.54H339.65v7c-4.1-5.28-10-8.21-17.59-8.21-15.83,0-28.14,12.31-28.14,29.32S306.23,665,322.06,665c8.21,0,14.07-2.93,17.59-8.21v7H352V635.69Zm-45.73,0c0-10,6.45-18.18,17-18.18,10,0,17,7.62,17,18.18,0,10-7,18.17-17,18.17C312.68,653.27,306.23,645.65,306.23,635.69Z"/></g><rect id="rect19" class="cls-1" x="407.66" y="180.14" width="184.68" height="331.84"/><path class="cls-2" d="M419.39,346.06c0-67.42,31.66-127.22,80.32-165.92a211.06,211.06,0,1,0,0,331.84A210.76,210.76,0,0,1,419.39,346.06Z"/><path id="path22" class="cls-3" d="M841.51,346.06A210.85,210.85,0,0,1,500.29,512a209.85,209.85,0,0,0,80.32-165.92c0-67.42-31.66-127.22-80.32-165.92A209.8,209.8,0,0,1,630.45,135C747.12,135,841.51,230,841.51,346.06Z"/></g></g></svg>