<svg id="Layer_1" data-name="Layer 1" xmlns="http://www.w3.org/2000/svg" viewBox="0 0 1000 800"><defs><style>.cls-1,.cls-4{fill:#85c441;}.cls-1,.cls-2{fill-rule:evenodd;}.cls-2,.cls-3{fill:#231f20;}</style></defs><g id="Orthopedic_Spine_Sports_Therapy" data-name="Orthopedic Spine &amp; Sports Therapy"><path class="cls-1" d="M152.63,368.3S-76.46,565.75,416.56,323C416.56,323-131.28,605.38,152.63,368.3Z"/><path class="cls-2" d="M221.46,319.05a10.82,10.82,0,0,1,15.31.25h0a10.82,10.82,0,0,1,.31,15.3h0a11,11,0,0,1-15.63-15.56Z"/><path class="cls-3" d="M255.13,355.07a38.43,38.43,0,0,1,28.52-11.89c20.85,0,35.6,14.6,35.6,36.55A46.76,46.76,0,0,1,307,411.68,38.93,38.93,0,0,1,278,424.2c-20.86,0-35.46-14.9-35.46-37A45.68,45.68,0,0,1,255.13,355.07ZM261,386.36c0,12.51,7.51,20.86,18.44,20.86s21.34-11.37,21.34-26.39c0-12.51-7.84-20.86-18.54-20.86S261,371,261,386.36Z"/><path class="cls-3" d="M342.34,421.63H324.76l13.41-75.9H356.4c19,0,29.68,9.65,29.68,23.8,0,10.93-7.07,19-19.5,21.11l19.09,31H365.29l-17-29.81h-.65Zm11.68-40c9.43,0,14.6-4.82,14.6-11.91S363.47,359,353.4,359.56l-4,22c1.86.11,3.47.11,4.55.11Z"/><path class="cls-3" d="M416.89,361.33H392l2.79-15.54h66.9L459,361.33H434.71L424,421.69H406.19Z"/><path class="cls-3" d="M470.73,345.73h17.79l-4.94,28H513l4.92-28h17.79l-13.3,75.9h-17.8l5.7-32.37H480.8l-5.69,32.37H457.32Z"/><path class="cls-3" d="M553.58,355.07a38.4,38.4,0,0,1,28.51-11.89c20.86,0,35.59,14.6,35.59,36.55a46.8,46.8,0,0,1-12.2,31.95,38.93,38.93,0,0,1-29.06,12.52c-20.86,0-35.46-14.9-35.46-37A45.6,45.6,0,0,1,553.58,355.07Zm5.9,31.29c0,12.51,7.49,20.86,18.42,20.86s21.34-11.37,21.34-26.39c0-12.51-7.82-20.86-18.54-20.86S559.48,371,559.48,386.36Z"/><path class="cls-3" d="M641,421.63H623.17l13.39-75.9h16.08c20,0,31,9.11,31,23.69s-11.47,25-31.83,25h-6Zm11.47-40.74c8.47,0,13.6-4.71,13.6-11.15s-5-9.87-14.25-9.12l-3.65,20.05C650.05,380.77,651.55,380.89,652.43,380.89Z"/><path class="cls-3" d="M699.91,345.73H746l-2.67,15.33H714.59l-2.46,14.14h27.34l-2.79,15.33H709.33l-2.67,15.67h29.91l-2.69,15.43H686.51Z"/><path class="cls-3" d="M760.79,345.73h15.77c12.64,0,22.3,1.6,29.68,6.86a32.79,32.79,0,0,1,13.94,27.87,38.38,38.38,0,0,1-15.54,31.41c-9.87,7.51-21.86,9.76-37.84,9.76H747.4Zm12.66,59.82c18.11,0,28.52-10.43,28.52-24.34,0-12.64-8.05-19.4-24.14-19.4h-2.08L768,405.61Z"/><path class="cls-3" d="M839.05,345.73h18l-13.42,75.9h-18Z"/><path class="cls-3" d="M898.34,424.09c-20.59,0-35.28-14.89-35.28-36.77a46.28,46.28,0,0,1,12.33-32.25,38.26,38.26,0,0,1,28.2-11.89c9.1,0,17,3,25.41,9.33l-7.28,15.43c-5.7-5.69-11.7-8.57-17.92-8.57-12.33,0-22.4,11.89-22.4,27.11,0,12.52,7.72,20.86,18.1,20.86,5.26,0,10.43-2.67,15.88-7.82l5.8,16A35.18,35.18,0,0,1,898.34,424.09Z"/><path class="cls-4" d="M238.82,455.9a15.73,15.73,0,0,0,9.14,3.47c3.19,0,5.23-1.69,5.23-4s-1.61-3.44-4.05-4.92l-2.6-1.48c-4.4-2.69-6.68-5.28-6.68-9.33,0-5.86,4.88-10.43,12.37-10.43A22.18,22.18,0,0,1,263.08,432l-2.94,6.47a15.79,15.79,0,0,0-8.35-2.74,3.36,3.36,0,0,0-3.72,3s0,.07,0,.1c0,1.29.81,2.38,2.44,3.38l3.73,2.29c5,3.09,7.43,6.14,7.43,10.27,0,6.92-5.36,11.91-13.66,11.91a26.44,26.44,0,0,1-10.89-2.49Z"/><path class="cls-4" d="M275.45,465.62h-9l6.78-35.27h8.13c10.16,0,15.69,4.17,15.69,11S291.22,453,280.91,453h-3Zm5.8-18.94c4.29,0,6.88-2.08,6.88-5.17s-2.55-4.59-7.22-4.17l-1.83,9.32Z"/><path class="cls-4" d="M305.38,430.29h9.12l-6.78,35.33h-9.18Z"/><path class="cls-4" d="M323.44,429.14h1.15l19.84,20.67,3.69-19.52h8.74l-7.07,36.42H348.6L328.91,446l-3.78,19.62h-8.57Z"/><path class="cls-4" d="M365.29,430.29h23.34l-1.38,7.13h-14.6L371.54,444h13.83l-1.31,7.14H370.23l-1.36,7.28H384l-1.44,7.21H358.59Z"/><path class="cls-4" d="M418.25,466.71c-8.07,0-13.39-4.63-13.39-10.77,0-5.13,3.52-8.86,10.68-11.45a11.74,11.74,0,0,1-2.65-6.73c0-4.82,4.4-8.62,11-8.62s10.74,3.3,10.74,7.93c0,4-2.81,6.82-8.51,9.4l5,6.93a10.14,10.14,0,0,0,2.84-4.46l7.15,2.58a18.11,18.11,0,0,1-5.42,8l4.44,6.11h-9.12l-1.39-1.87A22.57,22.57,0,0,1,418.25,466.71Zm1-17.19c-3.9,1.65-5.84,3.34-5.84,5.69s2.31,4.18,5.63,4.18a12.93,12.93,0,0,0,6.26-1.82Zm8.34-12.35c0-1.65-1.46-2.69-3.46-2.69a3.15,3.15,0,0,0-3.51,2.75c0,.06,0,.13,0,.19a6.65,6.65,0,0,0,1.86,4.17c3.48-1.29,5.19-2.58,5.19-4.42Z"/><path class="cls-4" d="M461.24,455.9a15.56,15.56,0,0,0,9.15,3.47c3.2,0,5.26-1.69,5.26-4s-1.63-3.44-4.07-4.92l-2.6-1.48c-4.4-2.69-6.68-5.28-6.68-9.33,0-5.86,4.88-10.43,12.37-10.43a22.54,22.54,0,0,1,10.81,3l-2.88,6.37a15.79,15.79,0,0,0-8.35-2.74,3.38,3.38,0,0,0-3.74,3,.22.22,0,0,0,0,.08c0,1.29.81,2.38,2.44,3.38l3.73,2.29c5,3.09,7.45,6.14,7.45,10.27,0,6.92-5.38,11.91-13.66,11.91a26.57,26.57,0,0,1-10.91-2.49Z"/><path class="cls-4" d="M497.89,465.62h-9l6.77-35.27h8.16c10.14,0,15.67,4.17,15.67,11s-5.8,11.6-16.11,11.6h-3Zm5.82-18.94c4.17,0,6.88-2.08,6.88-5.17s-2.57-4.59-7.22-4.17l-1.85,9.32Z"/><path class="cls-4" d="M528.15,434.63a20.36,20.36,0,0,1,14.44-5.55c10.57,0,18,6.84,18,17a20.4,20.4,0,0,1-20.17,20.63h-.69c-10.43,0-17.9-6.93-17.9-17.19A20.27,20.27,0,0,1,528.15,434.63Zm3,14.6a9,9,0,0,0,8.46,9.6,6.76,6.76,0,0,0,.9,0c5.63,0,10.79-5.27,10.79-12.26a9.18,9.18,0,0,0-8.62-9.71c-.26,0-.51,0-.77,0-5.57,0-10.76,5.19-10.76,12.26Z"/><path class="cls-4" d="M572.25,465.62h-8.8l6.78-35.27h9.21c9.6,0,15,4.49,15,11.06,0,5.09-3.56,8.82-9.86,9.82l9.65,14.39H584l-8.61-13.85H575ZM578.17,447c4.76,0,7.37-2.23,7.37-5.53s-2.61-5-7.7-4.73L575.75,447c1.07,0,1.88,0,2.42,0Z"/><path class="cls-4" d="M610,437.51H597.49l1.4-7.22h33.85l-1.36,7.22h-12.3l-5.57,28.11h-9Z"/><path class="cls-4" d="M632.51,455.9a15.68,15.68,0,0,0,9.12,3.47c3.17,0,5.25-1.63,5.25-4s-1.65-3.44-4.17-4.92l-2.48-1.54c-4.4-2.69-6.68-5.28-6.68-9.33,0-5.86,4.88-10.43,12.37-10.43a22.24,22.24,0,0,1,10.79,3l-2.88,6.37a15.8,15.8,0,0,0-8.24-2.74,3.39,3.39,0,0,0-3.75,3,.22.22,0,0,1,0,.08c0,1.29.84,2.38,2.47,3.38l3.73,2.29c5,3.09,7.42,6.14,7.42,10.27,0,6.92-5.36,11.91-13.66,11.91a26.57,26.57,0,0,1-10.91-2.49Z"/><path class="cls-3" d="M688.6,437.51H676.08l1.4-7.22h33.86L710,437.51H697.67l-5.59,28.11h-9Z"/><path class="cls-3" d="M715.72,430.29h9l-2.49,13H737.1l2.48-13h9l-6.72,35.33h-9l2.88-15H720.83l-2.88,15h-9Z"/><path class="cls-3" d="M757.23,430.29h23.32l-1.36,7.13h-14.6L763.34,444h13.83l-1.4,7.14H761.94l-1.36,7.28h15.06l-1.27,7.21H750.43Z"/><path class="cls-3" d="M790.2,465.62h-8.9l6.78-35.27h9.22c9.61,0,15,4.49,15,11.06,0,5.09-3.58,8.82-9.88,9.82l9.66,14.39H801.86l-8.63-13.85h-.34ZM796.11,447c4.77,0,7.38-2.23,7.38-5.53s-2.61-5-7.7-4.73L793.71,447c1,0,1.85,0,2.4,0Z"/><path class="cls-3" d="M810.21,465.62l26.49-36.48h.87l11.81,36.48h-9.26l-1.59-5.17H822.74l-3.58,5.17Zm23.38-20.56-6.84,9.61h10Z"/><path class="cls-3" d="M860.12,465.62h-9l6.78-35.27H866c10.13,0,15.68,4.17,15.68,11S875.89,453,865.59,453h-3Zm5.78-19c4.3,0,6.9-2.09,6.9-5.17s-2.54-4.59-7.21-4.17l-1.78,9.26Z"/><path class="cls-3" d="M891.51,465.62l3-15.43-12.1-19.84h9.76L900,443.76l10.54-13.41h9.22L903.28,451l-2.75,14.6Z"/><path class="cls-2" d="M146.27,334.63s84.94,34,41.22,149.37C187.49,484,265.16,355.28,146.27,334.63Z"/></g></svg>