<svg id="Layer_1" data-name="Layer 1" xmlns="http://www.w3.org/2000/svg" xmlns:xlink="http://www.w3.org/1999/xlink" viewBox="0 0 1000 800"><defs><style>.cls-1{fill:none;}.cls-2{fill:#33394a;}.cls-3{clip-path:url(#clip-path);}.cls-4{fill:url(#radial-gradient);}.cls-5{fill:#fff;}</style><clipPath id="clip-path"><path class="cls-1" d="M197.08,400a64.51,64.51,0,1,0,64.56-64.46h-.11A64.45,64.45,0,0,0,197.08,400h0"/></clipPath><radialGradient id="radial-gradient" cx="-1328.38" cy="-2267.96" r="243.65" gradientTransform="matrix(0.56, 0, 0, -0.56, 1050.2, -822.39)" gradientUnits="userSpaceOnUse"><stop offset="0.22" stop-color="#f37b20"/><stop offset="0.38" stop-color="#f37722"/><stop offset="0.54" stop-color="#f26a29"/><stop offset="0.7" stop-color="#f05533"/><stop offset="0.87" stop-color="#ee3742"/><stop offset="1" stop-color="#ec1b50"/></radialGradient></defs><g id="Shops_Rockvale" data-name="Shops @ Rockvale"><path class="cls-2" d="M340.84,350.14h48.1c15.61,0,26.4,4.06,33.3,10.95a32.08,32.08,0,0,1,9,23.79v.26a32.06,32.06,0,0,1-21,31.48l24.37,35.6H402.25l-20.58-30.9h-12.5v30.9H340.84Zm46.93,49c9.46,0,15.12-4.64,15.12-12.13h0c0-8.17-5.93-12.24-15.28-12.24H369.17v24.64Z"/><path class="cls-2" d="M432.29,413.15h0a43.61,43.61,0,0,1,87.06-.32v.32a43.61,43.61,0,0,1-87.06,0Zm60.23,0h0A17.27,17.27,0,0,0,476,395.2h-.34a16.57,16.57,0,0,0-16.55,16.59c0,.35,0,.7,0,1.05v.32a17,17,0,0,0,16.33,17.73h.45a16.63,16.63,0,0,0,16.66-16.58C492.56,413.92,492.54,413.53,492.52,413.15Z"/><path class="cls-2" d="M520.68,413.15h0A40.88,40.88,0,0,1,561.28,372c.52,0,1.05,0,1.57,0a37.42,37.42,0,0,1,33.67,17.47l-18.65,14a17.8,17.8,0,0,0-14.75-8.28,16.51,16.51,0,0,0-15.62,17.36c0,.09,0,.18,0,.28v.32A16.36,16.36,0,0,0,562.24,431c.43,0,.87.06,1.31.07a18.5,18.5,0,0,0,15.17-8.18l18.5,13.42a39.1,39.1,0,0,1-35,18.12,40.67,40.67,0,0,1-41.52-39.81C520.68,414.12,520.68,413.63,520.68,413.15Z"/><path class="cls-2" d="M599.41,345.75h27.73V400l21.38-26.4h31.37L652.48,405l28.11,47.41H650l-15.72-27-7.16,8.34v18.65H599.41Z"/><path class="cls-2" d="M671,373.22H700.2l15.18,46.07,15.45-46.07h28.59L727.94,452.7H702.71Z"/><path class="cls-2" d="M752.85,429.61h0c0-16.46,12.39-24.8,30.94-24.8a57.71,57.71,0,0,1,19,3.05v-1.29c0-8.33-5.34-13-16-13A59.4,59.4,0,0,0,764.87,398l-5.45-19.4a79.64,79.64,0,0,1,32.07-6.15c14.11,0,23.78,3.37,30,9.62A33,33,0,0,1,830,407.16v45.32H802.71v-8.55A30.43,30.43,0,0,1,779.35,454C764.23,454,752.85,445.21,752.85,429.61Zm50.18-6V420a30.28,30.28,0,0,0-10.69-2c-8,0-12.67,3.79-12.67,9.78h0a8.67,8.67,0,0,0,8.64,8.68,8.89,8.89,0,0,0,1.15-.08A12.71,12.71,0,0,0,803,424.51C803,424.21,803,423.92,803,423.62Z"/><path class="cls-2" d="M837.45,345.75H865V452.22H837.45Z"/><path class="cls-2" d="M870.26,413.15h0A39.57,39.57,0,0,1,908,371.87c.69,0,1.38,0,2.07,0,27.15,0,39.65,20,39.65,43.19v5.66h-52.8a16,16,0,0,0,17.05,13,23.47,23.47,0,0,0,17.48-8l15.34,12.72a41.31,41.31,0,0,1-34.16,16C887.74,454.14,870.26,437.36,870.26,413.15Zm53.45-6.84c-1-8.77-6.26-14.33-13.84-14.33s-12.24,5.35-13.69,14.33Z"/><path class="cls-2" d="M114.77,378.57h-7.59v-7.43h23.73v7.43h-7.53V397h-8.61Z"/><path class="cls-2" d="M133.59,371.14h8.6v9.09h7.86v-9.09h8.6v25.71h-8.6v-9.2h-7.86v9.2h-8.6Z"/><path class="cls-2" d="M162.28,371.14H184.2v7.05H170.73v2.62h12.56V387H170.73v2.78h14v7.06h-22.4Z"/><path class="cls-2" d="M50.27,424.32,54.86,419a14.64,14.64,0,0,0,9,3c1.55,0,2.19-.38,2.19-1.07h0c0-.7-.8-1.13-3.58-1.66-5.72-1.18-10.69-2.83-10.69-8.28h0c0-4.87,3.8-8.66,10.69-8.66a17.78,17.78,0,0,1,11.6,3.53l-4.17,5.77a13.56,13.56,0,0,0-7.75-2.51c-1.28,0-1.87.42-1.87,1.06h0c0,.7.69,1.13,3.42,1.66,6.57,1.23,11,3.1,11,8.29h0c0,5.34-4.44,8.65-11.33,8.65A19.68,19.68,0,0,1,50.27,424.32Z"/><path class="cls-2" d="M77.47,402.51h8.6v9h7.75v-9h8.61v25.66H93.82V419H86.07v9.2h-8.6Z"/><path class="cls-2" d="M105.58,415.39h0A13.63,13.63,0,0,1,119.41,402h.23a13.47,13.47,0,0,1,14,12.92c0,.15,0,.29,0,.44h0a14.06,14.06,0,0,1-28.06,0Zm19.4,0h0a5.34,5.34,0,0,0-4.9-5.75l-.44,0a5.34,5.34,0,0,0-5.36,5.33c0,.13,0,.26,0,.39h0a5.34,5.34,0,0,0,4.84,5.8,4.35,4.35,0,0,0,.51,0,5.34,5.34,0,0,0,5.36-5.32C125,415.69,125,415.54,125,415.39Z"/><path class="cls-2" d="M136.58,402.51h11.54c6.84,0,11.49,3.05,11.49,9.14h0c0,6.2-4.75,9.51-11.65,9.51h-2.83v6.95h-8.55Zm10.69,12.56c2.19,0,3.63-1,3.63-2.83h0c0-1.87-1.34-2.83-3.63-2.83h-2.35v5.71Z"/><path class="cls-2" d="M160.2,424.32l4.6-5.35a14.67,14.67,0,0,0,9.19,2.89c1.55,0,2.19-.38,2.19-1.07h0c0-.69-.8-1.12-3.53-1.66C166.88,418,162,416.3,162,410.85h0c0-4.86,3.85-8.66,10.69-8.66a17.65,17.65,0,0,1,11.6,3.53l-4.17,5.77a13.35,13.35,0,0,0-7.69-2.51c-1.29,0-1.87.43-1.87,1.07h0c0,.69.69,1.12,3.42,1.65,6.52,1.23,10.95,3.1,10.95,8.29h0c0,5.34-4.43,8.66-11.33,8.66A19.77,19.77,0,0,1,160.2,424.32Z"/><g class="cls-3"><rect class="cls-4" x="197.08" y="335.49" width="128.96" height="128.96"/></g><path class="cls-5" d="M310.49,400a49,49,0,1,0-21.86,40.77L283.28,433A39.59,39.59,0,1,1,300,409.09c-1.71,6.3-5.35,10.26-9.09,10.26-2.88,0-5-1.77-5-5.83V375.79H274.41v7a20.68,20.68,0,0,0-17.05-8.12c-14.37,0-23.78,11.54-23.78,25.81a24.74,24.74,0,0,0,24.2,25.28h.76A21.68,21.68,0,0,0,277.08,416v2.19a11.22,11.22,0,0,0,12.56,8.71,19,19,0,0,0,18-11.43,30.8,30.8,0,0,0,2.83-10.16v-1.23h0v-3.79h0V400m-50.66,15.28a14.11,14.11,0,0,1-13.62-14.58c0-.24,0-.47,0-.7a13.58,13.58,0,0,1,12.69-14.41l.62,0a13.78,13.78,0,0,1,14.17,13.39c0,.35,0,.69,0,1A13.89,13.89,0,0,1,261.05,415c-.41,0-.82.05-1.23.05"/></g></svg>