<?xml version="1.0" encoding="utf-8"?>
<!-- Generator: Adobe Illustrator 23.0.4, SVG Export Plug-In . SVG Version: 6.00 Build 0)  -->
<svg version="1.1" id="Logo" xmlns="http://www.w3.org/2000/svg" xmlns:xlink="http://www.w3.org/1999/xlink" x="0px" y="0px"
	 viewBox="0 0 122.7 116" enable-background="new 0 0 122.7 116" xml:space="preserve">
<g>
	<g>
		<path fill="#7A9D6A" d="M37.1,88.4h48.3c2.9,0,5.4-2.5,5.4-5.4V36.1c0-2.9-2.5-5.4-5.4-5.4H37.1c-2.9,0-5.4,2.5-5.4,5.4V83
			C31.7,85.9,34.2,88.4,37.1,88.4z"/>
		<path fill="#7A9D6A" d="M94.1,3.7H31.7v15.6h53.7c9.4,0,16.9,7.5,16.9,16.8V83c0,9.3-7.5,16.8-16.9,16.8H20.3V3.7H5.8v108.6h88.3
			c12.6,0,22.7-10.1,22.7-22.7V26.1C116.8,13.5,106.7,3.7,94.1,3.7z"/>
	</g>
</g>
</svg>
